<?xml version="1.0" encoding="UTF-8" standalone="no"?>
<!-- Generator: Gravit.io -->
<svg xmlns="http://www.w3.org/2000/svg" xmlns:xlink="http://www.w3.org/1999/xlink" style="isolation:isolate" viewBox="0 0 400 120" width="400pt" height="120pt"><defs><clipPath id="_clipPath_xk7p3ascueDATDZwWkUG83oEuQPX5tM9"><rect width="400" height="120"/></clipPath></defs><g clip-path="url(#_clipPath_xk7p3ascueDATDZwWkUG83oEuQPX5tM9)"><g><defs><linearGradient id="_lgradient_10" x1="-0.14347927588449796" y1="1.105969849389135" x2="0.9702788283880105" y2="0.3252939136943077"><stop offset="3.4782608695652173%" style="stop-color:#00BAFF"/><stop offset="96.52173913043478%" style="stop-color:#00E8FF"/></linearGradient></defs><path d="M 120.909 4.232 L 141.507 4.232 C 145.481 4.232 148.708 7.458 148.708 11.433 L 148.708 22.031 C 148.708 26.005 145.481 29.232 141.507 29.232 L 120.909 29.232 C 116.934 29.232 113.708 26.005 113.708 22.031 L 113.708 11.433 C 113.708 7.458 116.934 4.232 120.909 4.232 Z" style="stroke:none;fill:url(#_lgradient_10);stroke-miterlimit:10;"/><defs><linearGradient id="_lgradient_11" x1="-0.14347927588449796" y1="1.105969849389135" x2="0.9702788283880105" y2="0.3252939136943077"><stop offset="3.4782608695652173%" style="stop-color:#00BAFF"/><stop offset="96.52173913043478%" style="stop-color:#00E8FF"/></linearGradient></defs><path d="M 141.839 41.795 L 162.437 41.795 C 166.411 41.795 169.638 45.022 169.638 48.996 L 169.638 59.595 C 169.638 63.569 166.411 66.795 162.437 66.795 L 141.839 66.795 C 137.864 66.795 134.638 63.569 134.638 59.595 L 134.638 48.996 C 134.638 45.022 137.864 41.795 141.839 41.795 Z" style="stroke:none;fill:url(#_lgradient_11);stroke-miterlimit:10;"/><defs><linearGradient id="_lgradient_12" x1="-0.14347927588449796" y1="1.105969849389135" x2="0.9702788283880105" y2="0.3252939136943077"><stop offset="3.4782608695652173%" style="stop-color:#00BAFF"/><stop offset="96.52173913043478%" style="stop-color:#00E8FF"/></linearGradient></defs><path d="M 162.339 79.312 L 182.937 79.312 C 186.911 79.312 190.138 82.539 190.138 86.513 L 190.138 97.111 C 190.138 101.085 186.911 104.312 182.937 104.312 L 162.339 104.312 C 158.364 104.312 155.138 101.085 155.138 97.111 L 155.138 86.513 C 155.138 82.539 158.364 79.312 162.339 79.312 Z" style="stroke:none;fill:url(#_lgradient_12);stroke-miterlimit:10;"/><linearGradient id="_lgradient_13" x1="0.003197362533874412" y1="0.9957944123148622" x2="0.8035646895317142" y2="0.42046644786172627" gradientTransform="matrix(119.341,0,0,106.329,60.485,-2.087)" gradientUnits="userSpaceOnUse"><stop offset="1.3043478260869565%" stop-opacity="1" style="stop-color:rgb(164,164,164)"/><stop offset="98.69565217391305%" stop-opacity="1" style="stop-color:rgb(21,21,26)"/></linearGradient><path d=" M 167.447 104.206 L 120.156 104.222 L 72.865 104.238 C 66.033 104.24 63.199 99.403 66.541 93.444 L 90.304 51.077 L 114.067 8.71 C 117.409 2.751 122.84 2.749 126.186 8.706 L 149.975 51.057 L 173.764 93.409 C 177.11 99.366 174.279 104.204 167.447 104.206 Z " fill="url(#_lgradient_13)"/><linearGradient id="_lgradient_14" x1="-0.14347927588449796" y1="1.105969849389135" x2="0.9702788283880105" y2="0.3252939136943077" gradientTransform="matrix(119.341,0,0,106.329,9.469,-2.088)" gradientUnits="userSpaceOnUse"><stop offset="3.4782608695652173%" stop-opacity="1" style="stop-color:rgb(0,186,255)"/><stop offset="96.52173913043478%" stop-opacity="1" style="stop-color:rgb(0,232,255)"/></linearGradient><path d=" M 116.43 104.206 L 69.14 104.222 L 21.849 104.238 C 15.017 104.24 12.183 99.403 15.525 93.444 L 39.288 51.077 L 63.051 8.71 C 66.393 2.751 71.823 2.749 75.17 8.706 L 98.959 51.057 L 122.748 93.409 C 126.094 99.366 123.263 104.204 116.43 104.206 Z " fill="url(#_lgradient_14)"/><path d=" M 195.678 98.788 L 195.678 98.788 Q 195.138 98.068 195.138 96.988 L 195.138 96.988 L 195.138 96.988 Q 195.138 95.428 196.698 94.348 L 196.698 94.348 L 196.698 94.348 Q 197.538 93.808 198.438 93.808 L 198.438 93.808 L 198.438 93.808 Q 199.698 93.808 200.838 94.948 L 200.838 94.948 L 200.838 94.948 Q 202.638 96.808 204.588 97.708 L 204.588 97.708 L 204.588 97.708 Q 206.538 98.608 209.298 98.608 L 209.298 98.608 L 209.298 98.608 Q 213.978 98.428 213.978 95.068 L 213.978 95.068 L 213.978 95.068 Q 213.978 93.328 212.388 92.428 L 212.388 92.428 L 212.388 92.428 Q 210.798 91.528 207.438 90.628 L 207.438 90.628 L 207.438 90.628 Q 203.958 89.668 201.768 88.708 L 201.768 88.708 L 201.768 88.708 Q 199.578 87.748 197.988 85.798 L 197.988 85.798 L 197.988 85.798 Q 196.398 83.848 196.398 80.548 L 196.398 80.548 L 196.398 80.548 Q 196.398 77.668 198.048 75.538 L 198.048 75.538 L 198.048 75.538 Q 199.698 73.408 202.368 72.238 L 202.368 72.238 L 202.368 72.238 Q 205.038 71.068 208.038 71.068 L 208.038 71.068 L 208.038 71.068 Q 211.098 71.068 214.158 72.208 L 214.158 72.208 L 214.158 72.208 Q 217.218 73.348 218.958 75.568 L 218.958 75.568 L 218.958 75.568 Q 219.738 76.528 219.738 77.728 L 219.738 77.728 L 219.738 77.728 Q 219.738 79.108 218.598 80.008 L 218.598 80.008 L 218.598 80.008 Q 217.758 80.668 216.678 80.668 L 216.678 80.668 L 216.678 80.668 Q 215.358 80.668 214.518 79.828 L 214.518 79.828 L 214.518 79.828 Q 213.438 78.508 211.728 77.728 L 211.728 77.728 L 211.728 77.728 Q 210.018 76.948 207.858 76.948 L 207.858 76.948 L 207.858 76.948 Q 203.298 76.948 203.298 80.248 L 203.298 80.248 L 203.298 80.248 Q 203.298 81.568 204.138 82.378 L 204.138 82.378 L 204.138 82.378 Q 204.978 83.188 206.268 83.638 L 206.268 83.638 L 206.268 83.638 Q 207.558 84.088 209.898 84.748 L 209.898 84.748 L 209.898 84.748 Q 213.138 85.648 215.298 86.608 L 215.298 86.608 L 215.298 86.608 Q 217.458 87.568 218.958 89.548 L 218.958 89.548 L 218.958 89.548 Q 220.458 91.528 220.458 94.768 L 220.458 94.768 L 220.458 94.768 Q 220.458 97.708 218.718 99.898 L 218.718 99.898 L 218.718 99.898 Q 216.978 102.088 214.248 103.228 L 214.248 103.228 L 214.248 103.228 Q 211.518 104.368 208.638 104.368 L 208.638 104.368 L 208.638 104.368 Q 204.678 104.368 201.258 103.048 L 201.258 103.048 L 201.258 103.048 Q 197.838 101.728 195.678 98.788 L 195.678 98.788 Z  M 243.078 71.068 L 243.078 71.068 Q 247.218 71.068 250.578 73.198 L 250.578 73.198 L 250.578 73.198 Q 253.938 75.328 255.888 79.108 L 255.888 79.108 L 255.888 79.108 Q 257.838 82.888 257.838 87.688 L 257.838 87.688 L 257.838 87.688 Q 257.838 92.488 255.918 96.298 L 255.918 96.298 L 255.918 96.298 Q 253.998 100.108 250.668 102.238 L 250.668 102.238 L 250.668 102.238 Q 247.338 104.368 243.318 104.368 L 243.318 104.368 L 243.318 104.368 Q 240.438 104.368 237.888 103.198 L 237.888 103.198 L 237.888 103.198 Q 235.338 102.028 233.658 100.348 L 233.658 100.348 L 233.658 112.108 L 233.658 112.108 Q 233.658 113.668 232.638 114.718 L 232.638 114.718 L 232.638 114.718 Q 231.618 115.768 230.058 115.768 L 230.058 115.768 L 230.058 115.768 Q 228.498 115.768 227.478 114.748 L 227.478 114.748 L 227.478 114.748 Q 226.458 113.728 226.458 112.108 L 226.458 112.108 L 226.458 75.328 L 226.458 75.328 Q 226.458 73.768 227.478 72.718 L 227.478 72.718 L 227.478 72.718 Q 228.498 71.668 230.058 71.668 L 230.058 71.668 L 230.058 71.668 Q 231.618 71.668 232.638 72.718 L 232.638 72.718 L 232.638 72.718 Q 233.658 73.768 233.658 75.328 L 233.658 75.328 L 233.658 75.568 L 233.658 75.568 Q 235.098 73.768 237.678 72.418 L 237.678 72.418 L 237.678 72.418 Q 240.258 71.068 243.078 71.068 L 243.078 71.068 Z  M 242.178 97.768 L 242.178 97.768 Q 246.018 97.768 248.478 94.888 L 248.478 94.888 L 248.478 94.888 Q 250.938 92.008 250.938 87.688 L 250.938 87.688 L 250.938 87.688 Q 250.938 83.368 248.508 80.518 L 248.508 80.518 L 248.508 80.518 Q 246.078 77.668 242.178 77.668 L 242.178 77.668 L 242.178 77.668 Q 238.278 77.668 235.818 80.518 L 235.818 80.518 L 235.818 80.518 Q 233.358 83.368 233.358 87.688 L 233.358 87.688 L 233.358 87.688 Q 233.358 92.008 235.818 94.888 L 235.818 94.888 L 235.818 94.888 Q 238.278 97.768 242.178 97.768 L 242.178 97.768 Z  M 289.818 71.068 L 289.818 71.068 Q 291.378 71.068 292.398 72.088 L 292.398 72.088 L 292.398 72.088 Q 293.418 73.108 293.418 74.728 L 293.418 74.728 L 293.418 100.108 L 293.418 100.108 Q 293.418 101.668 292.398 102.718 L 292.398 102.718 L 292.398 102.718 Q 291.378 103.768 289.818 103.768 L 289.818 103.768 L 289.818 103.768 Q 288.258 103.768 287.268 102.748 L 287.268 102.748 L 287.268 102.748 Q 286.278 101.728 286.218 100.168 L 286.218 100.168 L 286.218 100.168 Q 284.718 101.908 282.168 103.138 L 282.168 103.138 L 282.168 103.138 Q 279.618 104.368 276.798 104.368 L 276.798 104.368 L 276.798 104.368 Q 272.658 104.368 269.298 102.238 L 269.298 102.238 L 269.298 102.238 Q 265.938 100.108 263.988 96.328 L 263.988 96.328 L 263.988 96.328 Q 262.038 92.548 262.038 87.748 L 262.038 87.748 L 262.038 87.748 Q 262.038 82.948 263.958 79.138 L 263.958 79.138 L 263.958 79.138 Q 265.878 75.328 269.208 73.198 L 269.208 73.198 L 269.208 73.198 Q 272.538 71.068 276.558 71.068 L 276.558 71.068 L 276.558 71.068 Q 279.438 71.068 281.958 72.118 L 281.958 72.118 L 281.958 72.118 Q 284.478 73.168 286.218 74.788 L 286.218 74.788 L 286.218 74.728 L 286.218 74.728 Q 286.218 73.168 287.238 72.118 L 287.238 72.118 L 287.238 72.118 Q 288.258 71.068 289.818 71.068 L 289.818 71.068 Z  M 277.698 97.768 L 277.698 97.768 Q 281.598 97.768 284.058 94.918 L 284.058 94.918 L 284.058 94.918 Q 286.518 92.068 286.518 87.748 L 286.518 87.748 L 286.518 87.748 Q 286.518 83.428 284.058 80.548 L 284.058 80.548 L 284.058 80.548 Q 281.598 77.668 277.698 77.668 L 277.698 77.668 L 277.698 77.668 Q 273.858 77.668 271.398 80.548 L 271.398 80.548 L 271.398 80.548 Q 268.938 83.428 268.938 87.748 L 268.938 87.748 L 268.938 87.748 Q 268.938 92.068 271.368 94.918 L 271.368 94.918 L 271.368 94.918 Q 273.798 97.768 277.698 97.768 L 277.698 97.768 Z  M 317.898 71.068 L 317.898 71.068 Q 319.698 71.068 320.928 72.088 L 320.928 72.088 L 320.928 72.088 Q 322.158 73.108 322.158 74.488 L 322.158 74.488 L 322.158 74.488 Q 322.158 76.348 321.198 77.278 L 321.198 77.278 L 321.198 77.278 Q 320.238 78.208 318.918 78.208 L 318.918 78.208 L 318.918 78.208 Q 318.018 78.208 316.878 77.788 L 316.878 77.788 L 316.878 77.788 Q 316.698 77.728 316.068 77.548 L 316.068 77.548 L 316.068 77.548 Q 315.438 77.368 314.718 77.368 L 314.718 77.368 L 314.718 77.368 Q 313.158 77.368 311.718 78.328 L 311.718 78.328 L 311.718 78.328 Q 310.278 79.288 309.348 81.238 L 309.348 81.238 L 309.348 81.238 Q 308.418 83.188 308.418 85.888 L 308.418 85.888 L 308.418 100.108 L 308.418 100.108 Q 308.418 101.668 307.398 102.718 L 307.398 102.718 L 307.398 102.718 Q 306.378 103.768 304.818 103.768 L 304.818 103.768 L 304.818 103.768 Q 303.258 103.768 302.238 102.718 L 302.238 102.718 L 302.238 102.718 Q 301.218 101.668 301.218 100.108 L 301.218 100.108 L 301.218 75.328 L 301.218 75.328 Q 301.218 73.768 302.238 72.718 L 302.238 72.718 L 302.238 72.718 Q 303.258 71.668 304.818 71.668 L 304.818 71.668 L 304.818 71.668 Q 306.378 71.668 307.398 72.718 L 307.398 72.718 L 307.398 72.718 Q 308.418 73.768 308.418 75.328 L 308.418 75.328 L 308.418 76.108 L 308.418 76.108 Q 309.798 73.648 312.378 72.358 L 312.378 72.358 L 312.378 72.358 Q 314.958 71.068 317.898 71.068 L 317.898 71.068 Z  M 347.718 97.168 L 347.718 97.168 Q 349.158 97.168 350.118 98.098 L 350.118 98.098 L 350.118 98.098 Q 351.078 99.028 351.078 100.468 L 351.078 100.468 L 351.078 100.468 Q 351.078 101.848 350.118 102.808 L 350.118 102.808 L 350.118 102.808 Q 349.158 103.768 347.718 103.768 L 347.718 103.768 L 328.398 103.768 L 328.398 103.768 Q 327.018 103.768 326.088 102.778 L 326.088 102.778 L 326.088 102.778 Q 325.158 101.788 325.158 100.648 L 325.158 100.648 L 325.158 100.648 Q 325.158 99.628 325.398 98.938 L 325.398 98.938 L 325.398 98.938 Q 325.638 98.248 326.298 97.348 L 326.298 97.348 L 340.578 78.868 L 328.938 78.868 L 328.938 78.868 Q 327.498 78.868 326.538 77.908 L 326.538 77.908 L 326.538 77.908 Q 325.578 76.948 325.578 75.508 L 325.578 75.508 L 325.578 75.508 Q 325.578 74.128 326.538 73.198 L 326.538 73.198 L 326.538 73.198 Q 327.498 72.268 328.938 72.268 L 328.938 72.268 L 347.418 72.268 L 347.418 72.268 Q 348.738 72.268 349.668 73.198 L 349.668 73.198 L 349.668 73.198 Q 350.598 74.128 350.598 75.508 L 350.598 75.508 L 350.598 75.508 Q 350.598 76.408 350.418 77.038 L 350.418 77.038 L 350.418 77.038 Q 350.238 77.668 349.578 78.508 L 349.578 78.508 L 335.178 97.168 L 347.718 97.168 Z  M 382.278 71.068 L 382.278 71.068 Q 383.838 71.068 384.858 72.088 L 384.858 72.088 L 384.858 72.088 Q 385.878 73.108 385.878 74.728 L 385.878 74.728 L 385.878 100.108 L 385.878 100.108 Q 385.878 101.668 384.858 102.718 L 384.858 102.718 L 384.858 102.718 Q 383.838 103.768 382.278 103.768 L 382.278 103.768 L 382.278 103.768 Q 380.718 103.768 379.728 102.748 L 379.728 102.748 L 379.728 102.748 Q 378.738 101.728 378.678 100.168 L 378.678 100.168 L 378.678 100.168 Q 377.178 101.908 374.628 103.138 L 374.628 103.138 L 374.628 103.138 Q 372.078 104.368 369.258 104.368 L 369.258 104.368 L 369.258 104.368 Q 365.118 104.368 361.758 102.238 L 361.758 102.238 L 361.758 102.238 Q 358.398 100.108 356.448 96.328 L 356.448 96.328 L 356.448 96.328 Q 354.498 92.548 354.498 87.748 L 354.498 87.748 L 354.498 87.748 Q 354.498 82.948 356.418 79.138 L 356.418 79.138 L 356.418 79.138 Q 358.338 75.328 361.668 73.198 L 361.668 73.198 L 361.668 73.198 Q 364.998 71.068 369.018 71.068 L 369.018 71.068 L 369.018 71.068 Q 371.898 71.068 374.418 72.118 L 374.418 72.118 L 374.418 72.118 Q 376.938 73.168 378.678 74.788 L 378.678 74.788 L 378.678 74.728 L 378.678 74.728 Q 378.678 73.168 379.698 72.118 L 379.698 72.118 L 379.698 72.118 Q 380.718 71.068 382.278 71.068 L 382.278 71.068 Z  M 370.158 97.768 L 370.158 97.768 Q 374.058 97.768 376.518 94.918 L 376.518 94.918 L 376.518 94.918 Q 378.978 92.068 378.978 87.748 L 378.978 87.748 L 378.978 87.748 Q 378.978 83.428 376.518 80.548 L 376.518 80.548 L 376.518 80.548 Q 374.058 77.668 370.158 77.668 L 370.158 77.668 L 370.158 77.668 Q 366.318 77.668 363.858 80.548 L 363.858 80.548 L 363.858 80.548 Q 361.398 83.428 361.398 87.748 L 361.398 87.748 L 361.398 87.748 Q 361.398 92.068 363.828 94.918 L 363.828 94.918 L 363.828 94.918 Q 366.258 97.768 370.158 97.768 L 370.158 97.768 Z " fill="rgb(255,255,255)"/></g></g></svg>