<?xml version="1.0" encoding="UTF-8" standalone="no"?>
<!-- Generator: Gravit.io -->
<svg xmlns="http://www.w3.org/2000/svg" xmlns:xlink="http://www.w3.org/1999/xlink" style="isolation:isolate" viewBox="0 0 200 120" width="200pt" height="120pt"><g><defs><linearGradient id="_lgradient_5" x1="-0.14347927588449796" y1="1.105969849389135" x2="0.9702788283880105" y2="0.3252939136943077"><stop offset="3.4782608695652173%" style="stop-color:#00BAFF"/><stop offset="96.52173913043478%" style="stop-color:#00E8FF"/></linearGradient></defs><path d="M 118.779 9.96 L 139.377 9.96 C 143.351 9.96 146.578 13.186 146.578 17.161 L 146.578 27.759 C 146.578 31.733 143.351 34.96 139.377 34.96 L 118.779 34.96 C 114.804 34.96 111.578 31.733 111.578 27.759 L 111.578 17.161 C 111.578 13.186 114.804 9.96 118.779 9.96 Z" style="stroke:none;fill:url(#_lgradient_5);stroke-miterlimit:10;"/><defs><linearGradient id="_lgradient_6" x1="-0.14347927588449796" y1="1.105969849389135" x2="0.9702788283880105" y2="0.3252939136943077"><stop offset="3.4782608695652173%" style="stop-color:#00BAFF"/><stop offset="96.52173913043478%" style="stop-color:#00E8FF"/></linearGradient></defs><path d="M 139.709 47.524 L 160.307 47.524 C 164.281 47.524 167.508 50.75 167.508 54.724 L 167.508 65.323 C 167.508 69.297 164.281 72.524 160.307 72.524 L 139.709 72.524 C 135.734 72.524 132.508 69.297 132.508 65.323 L 132.508 54.724 C 132.508 50.75 135.734 47.524 139.709 47.524 Z" style="stroke:none;fill:url(#_lgradient_6);stroke-miterlimit:10;"/><defs><linearGradient id="_lgradient_7" x1="-0.14347927588449796" y1="1.105969849389135" x2="0.9702788283880105" y2="0.3252939136943077"><stop offset="3.4782608695652173%" style="stop-color:#00BAFF"/><stop offset="96.52173913043478%" style="stop-color:#00E8FF"/></linearGradient></defs><path d="M 160.209 85.04 L 180.807 85.04 C 184.781 85.04 188.008 88.267 188.008 92.241 L 188.008 102.839 C 188.008 106.814 184.781 110.04 180.807 110.04 L 160.209 110.04 C 156.234 110.04 153.008 106.814 153.008 102.839 L 153.008 92.241 C 153.008 88.267 156.234 85.04 160.209 85.04 Z" style="stroke:none;fill:url(#_lgradient_7);stroke-miterlimit:10;"/><linearGradient id="_lgradient_8" x1="0.003197362533874412" y1="0.9957944123148622" x2="0.8035646895317142" y2="0.42046644786172627" gradientTransform="matrix(119.341,0,0,106.329,58.355,3.641)" gradientUnits="userSpaceOnUse"><stop offset="1.3043478260869565%" stop-opacity="1" style="stop-color:rgb(164,164,164)"/><stop offset="98.69565217391305%" stop-opacity="1" style="stop-color:rgb(21,21,26)"/></linearGradient><path d=" M 165.317 109.935 L 118.026 109.95 L 70.735 109.966 C 63.903 109.968 61.069 105.132 64.411 99.172 L 88.174 56.805 L 111.937 14.438 C 115.279 8.479 120.71 8.477 124.056 14.434 L 147.845 56.786 L 171.634 99.137 C 174.98 105.094 172.149 109.932 165.317 109.935 Z " fill="url(#_lgradient_8)"/><linearGradient id="_lgradient_9" x1="-0.14347927588449796" y1="1.105969849389135" x2="0.9702788283880105" y2="0.3252939136943077" gradientTransform="matrix(119.341,0,0,106.329,7.339,3.641)" gradientUnits="userSpaceOnUse"><stop offset="3.4782608695652173%" stop-opacity="1" style="stop-color:rgb(0,186,255)"/><stop offset="96.52173913043478%" stop-opacity="1" style="stop-color:rgb(0,232,255)"/></linearGradient><path d=" M 114.3 109.935 L 67.01 109.95 L 19.719 109.966 C 12.887 109.968 10.053 105.132 13.395 99.172 L 37.158 56.805 L 60.921 14.438 C 64.263 8.479 69.693 8.477 73.04 14.434 L 96.829 56.786 L 120.618 99.137 C 123.964 105.094 121.133 109.932 114.3 109.935 Z " fill="url(#_lgradient_9)"/></g></svg>