<?xml version="1.0" encoding="UTF-8" standalone="no"?>
<!-- Generator: Gravit.io -->
<svg xmlns="http://www.w3.org/2000/svg" xmlns:xlink="http://www.w3.org/1999/xlink" style="isolation:isolate" viewBox="0 0 500 500" width="500pt" height="500pt"><g><path d=" M 464.145 249.997 C 464.145 368.266 368.269 464.142 250 464.142 C 131.731 464.142 35.855 368.266 35.855 249.997 C 35.855 131.728 131.731 35.852 250 35.852 C 368.269 35.852 464.145 131.728 464.145 249.997 Z " fill="rgb(30,29,81)"/><linearGradient id="_lgradient_15" x1="0.40154294111682176" y1="0.16594996152591684" x2="0.7749413085715722" y2="1.179912033968975" gradientTransform="matrix(147.915,0,0,300.741,101.251,99.693)" gradientUnits="userSpaceOnUse"><stop offset="0%" stop-opacity="1" style="stop-color:rgb(255,255,255)"/><stop offset="100%" stop-opacity="1" style="stop-color:rgb(83,238,239)"/></linearGradient><path d=" M 249.167 99.693 C 230.877 100.037 213.331 103.293 197.02 108.986 L 197.02 226.546 L 249.167 226.546 L 249.167 99.693 Z  M 154.314 134.729 C 127.12 157.81 107.943 189.641 101.423 225.705 L 154.314 225.705 L 154.314 134.729 Z  M 195.174 268.255 L 195.174 391.157 C 211.915 396.841 229.92 400.091 248.691 400.435 L 248.691 268.255 L 195.174 268.255 Z  M 101.251 268.59 C 106.673 306.996 126.256 340.967 154.648 365.251 L 154.648 268.59 L 101.251 268.59 L 101.251 268.59 Z " fill="url(#_lgradient_15)"/><linearGradient id="_lgradient_16" x1="0.012113672614120885" y1="0.022080668533127012" x2="0.4026452142275665" y2="1.1414556133234222" gradientTransform="matrix(145.832,0,0,297.549,252.961,101.208)" gradientUnits="userSpaceOnUse"><stop offset="0%" stop-opacity="1" style="stop-color:rgb(47,127,190)"/><stop offset="100%" stop-opacity="1" style="stop-color:rgb(34,93,139)"/></linearGradient><path d=" M 252.961 101.208 C 333.764 102.788 398.793 168.821 398.793 250.001 C 398.793 331.181 333.763 397.178 252.961 398.757 L 252.961 101.208 Z " fill="url(#_lgradient_16)"/><linearGradient id="_lgradient_17" x1="0.1685177771423686" y1="0.12393437298911719" x2="0.7608070433670604" y2="1.2649096209157626" gradientTransform="matrix(148.853,0,0,278.601,99.499,110.853)" gradientUnits="userSpaceOnUse"><stop offset="0%" stop-opacity="1" style="stop-color:rgb(213,13,22)"/><stop offset="50%" stop-opacity="1" style="stop-color:rgb(136,13,22)"/><stop offset="100%" stop-opacity="1" style="stop-color:rgb(82,13,22)"/></linearGradient><path d=" M 193.134 110.853 L 193.134 229.879 L 248.352 229.879 L 248.352 265.015 L 193.134 265.015 L 193.134 389.454 C 180.468 384.226 168.567 377.309 157.753 368.893 L 157.753 265.015 L 100.228 265.015 C 99.742 260.081 99.498 255.127 99.499 250.169 C 99.498 243.383 99.954 236.604 100.865 229.879 L 157.753 229.879 L 157.753 131.422 C 168.566 123.003 180.468 116.084 193.134 110.853 L 193.134 110.853 Z " fill="url(#_lgradient_17)"/><path d=" M 290.629 151.317 L 341.816 151.317 L 341.816 158.459 L 290.629 158.459 L 290.629 151.317 Z " fill="rgb(157,13,22)"/><linearGradient id="_lgradient_18" x1="0.1570314243984442" y1="0.20705443720804684" x2="0.8041749972271568" y2="0.7597940934442571" gradientTransform="matrix(450,0,0,449.994,25,25.003)" gradientUnits="userSpaceOnUse"><stop offset="0%" stop-opacity="1" style="stop-color:rgb(248,255,191)"/><stop offset="50.9%" stop-opacity="1" style="stop-color:rgb(248,228,94)"/><stop offset="75%" stop-opacity="1" style="stop-color:rgb(248,211,94)"/><stop offset="100%" stop-opacity="1" style="stop-color:rgb(238,142,10)"/></linearGradient><path d=" M 250.625 25.003 C 172.724 24.879 96.874 65.241 55.153 137.504 C -6.943 245.058 29.953 382.748 137.507 444.844 C 245.061 506.94 382.751 470.045 444.847 362.49 C 506.943 254.937 470.047 117.246 362.493 55.15 C 327.202 34.775 288.67 25.064 250.625 25.003 L 250.625 25.003 Z  M 250 35.851 C 368.208 35.851 464.147 131.789 464.147 249.997 C 464.147 368.205 368.208 464.144 250 464.144 C 131.792 464.144 35.853 368.205 35.853 249.997 C 35.853 131.789 131.792 35.851 250 35.851 L 250 35.851 Z  M 237.106 43.35 L 237.106 87.737 L 250.632 87.737 L 250.632 72.783 L 261.554 87.737 L 279.351 90.342 L 263.928 70.41 C 267.312 69.706 273.659 66.113 273.659 58.543 C 273.659 47.21 263.454 43.588 257.046 43.588 L 237.106 43.35 L 237.106 43.35 Z  M 254.196 53.082 C 257.875 53.082 260.483 55.575 260.602 58.305 C 260.721 61.034 258.833 63.996 254.672 63.996 L 250.394 63.996 L 250.164 53.32 L 254.196 53.082 Z  M 317.957 55.604 C 317.717 55.602 317.474 55.607 317.236 55.611 C 305.566 55.849 295.7 62.924 293.338 74.479 C 290.986 85.988 301.438 99.606 314.215 102.506 C 328.077 105.652 341.014 99.07 343.93 84.129 C 346.428 71.335 337.024 58.772 323.061 56.11 C 321.343 55.782 319.637 55.614 317.957 55.604 L 317.957 55.604 Z  M 154.276 67.322 L 142.171 73.728 L 147.863 123.807 L 160.682 114.313 L 159.023 106.724 L 173.025 98.414 L 179.431 103.161 L 194.147 97.231 L 154.276 67.322 L 154.276 67.322 Z  M 318.27 67.872 C 319.093 67.875 319.927 67.95 320.77 68.111 C 327.507 69.395 331.784 75.22 330.605 81.398 C 329.427 87.577 323.236 91.782 316.499 90.498 C 309.762 89.213 306.438 82.689 307.616 76.51 C 308.646 71.104 312.511 67.857 318.27 67.872 Z  M 154.753 83.221 L 164.953 91.056 L 157.595 95.326 L 154.753 83.221 L 154.753 83.221 Z  M 380.461 89.635 L 342.487 115.98 L 353.64 124.759 L 371.92 110.519 L 362.657 133.538 L 367.404 138.047 L 390.669 128.554 L 376.667 147.541 L 385.208 159.646 L 412.029 121.195 L 403.48 110.995 L 381.644 119.774 L 390.43 97.7 L 380.461 89.635 L 380.461 89.635 Z  M 250 95.244 C 164.609 95.244 95.24 164.614 95.24 250.005 C 95.24 335.396 164.609 404.757 250 404.757 C 335.391 404.757 404.76 335.396 404.76 250.005 C 404.76 164.614 335.391 95.244 250 95.244 Z  M 108.23 100.311 L 89.719 121.671 L 121.994 150.39 L 131.019 139.952 L 118.676 129.03 L 127.693 119.298 L 119.859 112.178 L 110.842 122.148 L 106.333 117.877 L 116.064 107.193 L 108.23 100.311 L 108.23 100.311 Z  M 247.009 101.211 L 247.009 224.031 L 198.865 224.031 L 198.865 110.206 C 213.925 104.693 230.123 101.545 247.009 101.211 L 247.009 101.211 Z  M 252.961 101.211 C 309.63 102.319 358.539 135.131 382.7 182.635 C 382.39 182.22 382.073 181.811 381.748 181.407 C 375.828 174.054 368.37 169.177 362.017 165.091 C 361.512 164.768 360.921 164.604 360.321 164.623 C 359.395 164.649 358.534 165.106 357.992 165.858 C 356.514 167.905 353.722 169.608 350.083 169.608 L 322.667 169.608 C 321.291 169.608 319.985 169.982 318.858 170.798 C 317.731 171.614 316.73 173.073 316.73 174.801 L 316.73 177.925 C 316.716 177.944 316.691 177.992 316.573 178.082 C 316.305 178.288 315.778 178.506 315.19 178.506 L 291.568 178.506 L 291.59 176.534 L 291.59 176.497 C 291.59 172.901 289.756 169.634 286.925 167.569 L 286.88 167.532 L 286.843 167.509 L 276.516 160.508 L 276.501 160.494 L 276.487 160.486 C 274.843 159.401 273.005 158.887 271.271 158.924 C 270.702 158.937 270.136 159.012 269.582 159.147 C 267.404 159.681 265.631 161.057 264.486 162.815 C 262.196 166.332 262.722 171.889 267.127 175.039 L 271.971 178.744 L 272.008 178.774 L 272.045 178.796 C 273.064 179.526 273.63 180.407 273.63 180.649 L 273.511 188.498 L 273.511 188.543 C 273.511 188.639 273.496 188.662 273.488 188.699 C 273.353 188.699 273.092 188.668 272.551 188.491 C 271.405 188.115 270.536 187.632 269.188 187.122 C 267.84 186.612 266.106 186.207 263.876 186.207 C 259.949 186.207 256.723 187.979 254.702 190.336 C 254.016 191.136 253.431 192.018 252.961 192.962 L 252.961 101.211 L 252.961 101.211 Z  M 192.913 112.535 L 192.913 229.983 L 247.009 229.983 L 247.009 264.654 L 192.913 264.654 L 192.913 387.444 C 180.494 382.28 168.833 375.454 158.249 367.155 L 158.249 264.654 L 101.891 264.654 C 101.415 259.785 101.177 254.896 101.177 250.005 C 101.176 243.308 101.623 236.62 102.516 229.983 L 158.249 229.983 L 158.249 132.831 C 168.833 124.53 180.494 117.702 192.913 112.535 L 192.913 112.535 Z  M 293.792 135.413 C 291.361 135.413 289.387 137.386 289.387 139.818 C 289.387 142.249 291.361 144.222 293.792 144.222 C 296.223 144.222 298.196 142.249 298.196 139.818 C 298.196 137.386 296.223 135.413 293.792 135.413 Z  M 305.011 135.413 C 302.58 135.413 300.607 137.386 300.607 139.818 C 300.607 142.249 302.58 144.222 305.011 144.222 C 307.443 144.222 309.416 142.249 309.416 139.818 C 309.416 137.386 307.443 135.413 305.011 135.413 Z  M 316.224 135.413 C 313.793 135.413 311.819 137.386 311.819 139.818 C 311.819 142.249 313.793 144.222 316.224 144.222 C 318.655 144.222 320.628 142.249 320.628 139.818 C 320.628 137.386 318.655 135.413 316.224 135.413 Z  M 327.436 135.413 C 325.005 135.413 323.031 137.386 323.031 139.818 C 323.031 142.249 325.005 144.222 327.436 144.222 C 329.867 144.222 331.84 142.249 331.84 139.818 C 331.84 137.386 329.867 135.413 327.436 135.413 Z  M 338.655 135.413 C 336.224 135.413 334.251 137.386 334.251 139.818 C 334.251 142.249 336.224 144.222 338.655 144.222 C 341.087 144.222 343.06 142.249 343.06 139.818 C 343.06 137.386 341.087 135.413 338.655 135.413 Z  M 152.297 137.757 L 152.297 224.031 L 103.439 224.031 C 109.463 189.83 127.175 159.645 152.297 137.757 Z  M 290.63 146.923 L 290.63 154.065 L 341.817 154.065 L 341.817 146.923 L 290.63 146.923 Z  M 290.63 156.535 L 290.63 163.678 L 341.817 163.678 L 341.817 156.535 L 290.63 156.535 Z  M 433.151 156.565 L 392.804 172.941 L 404.195 199.524 L 414.871 195.015 L 408.941 181.482 L 413.926 179.108 L 419.626 192.166 L 429.35 188.126 L 423.896 175.552 L 428.643 173.417 L 434.335 186.943 L 444.304 182.91 L 433.151 156.565 L 433.151 156.565 Z  M 64.557 161.55 L 58.866 174.124 L 98.261 192.404 L 110.842 166.765 L 101.11 161.78 L 93.514 175.076 L 64.557 161.55 Z  M 271.442 164.861 C 271.912 164.834 272.459 164.956 273.205 165.449 L 283.502 172.435 C 284.786 173.371 285.638 175.101 285.638 176.497 L 285.519 186.147 L 285.519 186.184 C 285.519 189.984 287.441 193.223 289.923 195.484 C 291.387 196.817 293.063 197.869 294.856 198.512 C 293.063 199.155 291.387 200.207 289.923 201.54 C 287.441 203.801 285.519 207.04 285.519 210.84 L 285.519 210.877 L 285.638 220.564 C 285.638 221.96 284.696 223.713 283.413 224.649 L 273.176 231.59 C 272.181 232.247 271.572 232.237 270.996 232.096 C 270.419 231.955 269.854 231.546 269.47 230.958 C 268.705 229.782 268.371 228.412 270.587 226.829 L 270.624 226.799 L 270.661 226.769 L 275.586 223.012 C 277.252 221.82 279.582 219.817 279.582 216.375 L 279.582 216.331 L 279.463 208.437 C 279.463 206.753 278.858 204.851 277.156 203.563 C 275.455 202.276 273.024 202.117 270.698 202.879 C 269.037 203.423 267.952 204.009 267.082 204.337 C 266.213 204.666 265.476 204.866 263.875 204.866 C 261.633 204.866 260.255 204.022 259.218 202.812 C 258.181 201.602 257.648 199.917 257.648 198.809 L 257.648 198.214 C 257.648 197.107 258.18 195.422 259.218 194.212 C 260.255 193.002 261.633 192.158 263.875 192.158 C 265.476 192.158 266.212 192.358 267.082 192.686 C 267.952 193.015 269.037 193.6 270.698 194.145 C 273.024 194.907 275.455 194.748 277.156 193.46 C 278.857 192.173 279.463 190.227 279.463 188.542 L 279.582 180.693 L 279.582 180.648 C 279.582 177.207 277.178 175.152 275.512 173.96 L 270.661 170.255 L 270.624 170.225 L 270.587 170.195 C 268.372 168.612 268.705 167.242 269.47 166.066 C 269.854 165.478 270.419 165.069 270.996 164.928 C 271.142 164.892 271.292 164.87 271.442 164.861 L 271.442 164.861 Z  M 360.886 171.475 C 366.583 175.198 372.491 179.402 377.113 185.142 C 382.301 191.586 385.974 199.876 385.974 212.097 C 385.974 235.059 364.532 253.501 343.908 253.501 L 294.067 253.501 C 292.651 253.501 291.202 254.15 290.325 255.153 C 289.447 256.156 289.095 257.366 289.105 258.523 C 289.114 259.681 289.487 260.863 290.354 261.849 C 291.222 262.835 292.648 263.493 294.067 263.493 L 342.725 263.493 C 360.219 263.493 369.546 274.753 369.546 288.045 C 369.546 300.999 359.858 313.178 342.844 313.178 L 292.706 313.178 C 291.49 313.178 290.199 313.728 289.402 314.614 C 288.605 315.499 288.272 316.575 288.279 317.604 C 288.285 318.634 288.621 319.693 289.41 320.566 C 290.199 321.438 291.486 321.994 292.706 321.994 L 330.025 321.994 C 338.057 321.994 344.89 329.822 344.89 337.298 C 344.89 341.089 343.813 344.589 341.43 347.134 C 339.048 349.678 335.243 351.523 328.842 351.523 L 306.462 351.523 C 305.57 351.523 304.632 351.719 303.769 352.342 C 302.906 352.965 302.2 354.156 302.236 355.392 C 302.273 356.629 302.985 357.689 303.814 358.279 C 304.642 358.869 305.567 359.083 306.462 359.083 L 321.305 359.083 C 323.399 359.083 324.948 359.998 326.171 361.486 C 327.395 362.973 328.106 365.058 328.106 366.724 C 328.106 368.798 327.339 370.716 325.985 371.917 C 325.107 372.695 323.893 373.236 322.228 373.367 C 322.31 372.51 322.324 371.539 321.752 370.377 C 321.073 368.998 319.18 367.899 317.571 367.899 L 308.665 367.899 C 305.564 367.899 302.14 366.73 299.611 364.521 C 297.081 362.313 295.348 359.184 295.348 354.678 C 295.348 350.535 297.079 347.581 299.536 345.46 C 301.993 343.339 305.257 342.231 307.661 342.231 L 329.55 342.231 C 330.538 342.231 331.501 342.06 332.421 341.502 C 333.342 340.943 334.29 339.767 334.289 338.303 C 334.287 336.839 333.334 335.661 332.414 335.103 C 331.494 334.545 330.538 334.382 329.55 334.382 L 295.258 334.382 C 282.064 334.382 274.717 325.045 274.717 314.978 C 274.717 305.997 282.409 295.351 294.068 295.351 L 345.099 295.351 C 346.489 295.351 347.918 294.703 348.767 293.714 C 349.617 292.726 349.951 291.549 349.943 290.426 C 349.935 289.303 349.586 288.148 348.745 287.175 C 347.904 286.201 346.492 285.545 345.1 285.545 L 293.124 285.545 C 278.594 285.545 267.098 274.771 267.098 258.501 C 267.098 244.91 278.219 230.973 294.664 230.973 L 341.774 230.973 C 344.343 230.973 346.648 229.817 348.061 228.13 C 349.474 226.444 350.104 224.366 350.114 222.32 C 350.125 220.274 349.515 218.178 348.098 216.479 C 346.681 214.781 344.359 213.63 341.774 213.63 L 291.509 213.63 L 291.472 210.81 C 291.472 209.07 292.418 207.319 293.935 205.937 C 295.452 204.555 297.492 203.764 298.741 203.764 L 326.909 203.764 C 327.999 203.764 329.078 203.512 330.138 202.782 C 331.198 202.052 332.184 200.477 332.184 198.511 C 332.184 196.486 331.581 195.462 330.138 194.241 C 329.078 193.511 327.999 193.259 326.909 193.259 L 298.741 193.259 C 297.493 193.259 295.452 192.468 293.935 191.086 C 292.418 189.704 291.472 187.924 291.472 186.183 L 291.494 184.457 L 325.875 184.457 C 327.778 184.457 329.514 183.847 330.882 182.798 C 332.249 181.749 333.367 180.14 333.367 178.11 L 333.367 175.558 L 350.085 175.558 C 354.42 175.56 358.189 173.943 360.886 171.475 L 360.886 171.475 Z  M 391.219 203.006 C 396.133 217.78 398.793 233.584 398.793 250.005 C 398.793 301.985 372.137 347.738 331.743 374.342 C 333.321 372.099 334.057 369.394 334.057 366.724 C 334.057 363.542 332.915 360.316 330.769 357.706 C 330.684 357.603 330.583 357.51 330.494 357.409 C 337.264 357.082 342.418 354.791 345.776 351.204 C 349.405 347.327 350.842 342.232 350.842 337.299 C 350.842 330.011 346.762 322.998 340.582 319.13 L 342.844 319.13 C 362.784 319.13 375.498 304.068 375.498 288.046 C 375.498 274.462 366.663 262.292 351.966 258.665 C 373.067 254.701 391.926 235.713 391.926 212.098 C 391.926 208.865 391.675 205.841 391.219 203.006 L 391.219 203.006 Z  M 252.961 204.062 C 253.431 205.006 254.016 205.888 254.702 206.689 C 256.723 209.046 259.949 210.818 263.875 210.818 C 266.106 210.818 267.839 210.412 269.187 209.903 C 270.536 209.393 271.405 208.909 272.55 208.534 C 273.091 208.356 273.352 208.326 273.488 208.325 C 273.496 208.363 273.51 208.389 273.51 208.482 L 273.51 208.526 L 273.629 216.42 C 273.629 216.663 273.064 217.499 272.045 218.228 L 272.007 218.25 L 271.97 218.28 L 267.053 222.045 C 262.647 225.195 262.195 230.693 264.486 234.209 C 265.46 235.705 266.891 236.921 268.637 237.58 C 263.871 243.548 261.145 251.005 261.145 258.501 C 261.145 275.033 271.866 287.565 286.084 290.709 C 275.435 294.348 268.764 304.985 268.764 314.978 C 268.764 328.081 279.141 340.334 295.258 340.334 L 296.426 340.334 C 296.165 340.538 295.898 340.733 295.645 340.951 C 292.074 344.035 289.395 348.79 289.395 354.678 C 289.395 360.799 291.983 365.773 295.689 369.008 C 299.396 372.243 304.117 373.851 308.665 373.851 L 316.12 373.851 C 315.966 374.395 315.792 374.9 315.792 374.9 C 315.428 375.727 315.458 376.674 315.875 377.475 C 316.291 378.277 317.049 378.846 317.935 379.022 C 320.065 379.444 322.078 379.473 323.902 379.164 C 302.929 391.189 278.748 398.257 252.961 398.76 L 252.961 204.062 L 252.961 204.062 Z  M 92.569 209.248 L 46.284 224.441 L 44.625 238.205 L 88.536 261.938 L 88.298 246.039 L 81.662 242.966 L 82.659 226.621 L 90.434 224.679 L 92.569 209.248 L 92.569 209.248 Z  M 432.913 210.677 C 417.421 210.677 409.655 223.372 409.655 236.069 C 409.655 248.767 418.843 261.47 432.913 261.47 C 446.978 261.47 456.409 249.954 456.409 236.069 C 456.409 222.422 448.168 210.677 432.913 210.677 Z  M 291.575 219.582 L 341.773 219.582 C 342.79 219.582 343.163 219.858 343.529 220.297 C 343.894 220.735 344.165 221.489 344.161 222.29 C 344.157 223.093 343.876 223.857 343.499 224.307 C 343.122 224.756 342.747 225.021 341.773 225.021 L 294.663 225.021 C 293.228 225.021 291.827 225.113 290.459 225.281 C 291.181 223.828 291.59 222.216 291.59 220.527 L 291.59 220.49 L 291.575 219.582 L 291.575 219.582 Z  M 433.211 224.441 C 440.039 224.441 444.021 230.817 444.021 236.069 C 444.021 241.203 439.892 247.698 433.211 247.698 C 426.527 247.698 422.639 242.062 422.639 236.069 C 422.639 230.077 426.382 224.441 433.211 224.441 Z  M 72.243 229.225 L 71.677 238.331 L 59.104 232.506 L 72.243 229.225 Z  M 102.591 270.606 L 152.297 270.606 L 152.297 362.23 C 125.868 339.211 107.637 307.012 102.591 270.606 Z  M 198.865 270.606 L 247.009 270.606 L 247.009 398.76 C 230.123 398.428 213.925 395.276 198.865 389.766 L 198.865 270.606 Z " fill="url(#_lgradient_18)"/><path d=" M 271.442 164.861 C 271.912 164.834 272.459 164.956 273.205 165.449 L 283.502 172.435 C 284.786 173.371 285.638 175.101 285.638 176.497 L 285.519 186.147 L 285.519 186.184 C 285.519 189.984 287.441 193.223 289.923 195.484 C 291.387 196.817 293.063 197.869 294.856 198.512 C 293.063 199.155 291.387 200.207 289.923 201.54 C 287.441 203.801 285.519 207.04 285.519 210.84 L 285.519 210.877 L 285.638 220.564 C 285.638 221.96 284.696 223.713 283.413 224.649 L 273.176 231.59 C 272.181 232.247 271.572 232.237 270.996 232.096 C 270.419 231.955 269.854 231.546 269.47 230.958 C 268.705 229.782 268.371 228.412 270.587 226.829 L 270.624 226.799 L 270.661 226.769 L 275.586 223.012 C 277.252 221.82 279.582 219.817 279.582 216.375 L 279.582 216.331 L 279.463 208.437 C 279.463 206.753 278.858 204.851 277.156 203.563 C 275.455 202.276 273.024 202.117 270.698 202.879 C 269.037 203.423 267.952 204.009 267.082 204.337 C 266.213 204.666 265.476 204.866 263.875 204.866 C 261.633 204.866 260.255 204.022 259.218 202.812 C 258.181 201.602 257.648 199.917 257.648 198.809 L 257.648 198.214 C 257.648 197.107 258.18 195.422 259.218 194.212 C 260.255 193.002 261.633 192.158 263.875 192.158 C 265.476 192.158 266.212 192.358 267.082 192.686 C 267.952 193.015 269.037 193.6 270.698 194.145 C 273.024 194.907 275.455 194.748 277.156 193.46 C 278.857 192.173 279.463 190.227 279.463 188.542 L 279.582 180.693 L 279.582 180.648 C 279.582 177.207 277.178 175.152 275.512 173.96 L 270.661 170.255 L 270.624 170.225 L 270.587 170.195 C 268.372 168.612 268.705 167.242 269.47 166.066 C 269.854 165.478 270.419 165.069 270.996 164.928 C 271.142 164.892 271.292 164.87 271.442 164.861 L 271.442 164.861 Z " fill="rgb(157,13,22)"/><linearGradient id="_lgradient_19" x1="0.32282343327852336" y1="0.07745174227799867" x2="0.6421737594926218" y2="1.0270213294451214" gradientTransform="matrix(118.876,0,0,201.893,267.098,171.475)" gradientUnits="userSpaceOnUse"><stop offset="0%" stop-opacity="1" style="stop-color:rgb(21,112,49)"/><stop offset="100%" stop-opacity="1" style="stop-color:rgb(15,83,36)"/></linearGradient><path d=" M 360.886 171.475 C 366.583 175.198 372.491 179.402 377.113 185.142 C 382.301 191.586 385.974 199.876 385.974 212.097 C 385.974 235.059 364.532 253.501 343.908 253.501 L 294.067 253.501 C 292.651 253.501 291.202 254.15 290.325 255.153 C 289.447 256.156 289.095 257.366 289.105 258.523 C 289.114 259.681 289.487 260.863 290.354 261.849 C 291.222 262.835 292.648 263.493 294.067 263.493 L 342.725 263.493 C 360.219 263.493 369.546 274.753 369.546 288.045 C 369.546 300.999 359.858 313.178 342.844 313.178 L 292.706 313.178 C 291.49 313.178 290.199 313.728 289.402 314.614 C 288.605 315.499 288.272 316.575 288.279 317.604 C 288.285 318.634 288.621 319.693 289.41 320.566 C 290.199 321.438 291.486 321.994 292.706 321.994 L 330.025 321.994 C 338.057 321.994 344.89 329.822 344.89 337.298 C 344.89 341.089 343.813 344.589 341.43 347.134 C 339.048 349.678 335.243 351.523 328.842 351.523 L 306.462 351.523 C 305.57 351.523 304.632 351.719 303.769 352.342 C 302.906 352.965 302.2 354.156 302.236 355.392 C 302.273 356.629 302.985 357.689 303.814 358.279 C 304.642 358.869 305.567 359.083 306.462 359.083 L 321.305 359.083 C 323.399 359.083 324.948 359.998 326.171 361.486 C 327.395 362.973 328.106 365.058 328.106 366.724 C 328.106 368.798 327.339 370.716 325.985 371.917 C 325.107 372.695 323.893 373.236 322.228 373.367 C 322.31 372.51 322.324 371.539 321.752 370.377 C 321.073 368.998 319.18 367.899 317.571 367.899 L 308.665 367.899 C 305.564 367.899 302.14 366.73 299.611 364.521 C 297.081 362.313 295.348 359.184 295.348 354.678 C 295.348 350.535 297.079 347.581 299.536 345.46 C 301.993 343.339 305.257 342.231 307.661 342.231 L 329.55 342.231 C 330.538 342.231 331.501 342.06 332.421 341.502 C 333.342 340.943 334.29 339.767 334.289 338.303 C 334.287 336.839 333.334 335.661 332.414 335.103 C 331.494 334.545 330.538 334.382 329.55 334.382 L 295.258 334.382 C 282.064 334.382 274.717 325.045 274.717 314.978 C 274.717 305.997 282.409 295.351 294.068 295.351 L 345.099 295.351 C 346.489 295.351 347.918 294.703 348.767 293.714 C 349.617 292.726 349.951 291.549 349.943 290.426 C 349.935 289.303 349.586 288.148 348.745 287.175 C 347.904 286.201 346.492 285.545 345.1 285.545 L 293.124 285.545 C 278.594 285.545 267.098 274.771 267.098 258.501 C 267.098 244.91 278.219 230.973 294.664 230.973 L 341.774 230.973 C 344.343 230.973 346.648 229.817 348.061 228.13 C 349.474 226.444 350.104 224.366 350.114 222.32 C 350.125 220.274 349.515 218.178 348.098 216.479 C 346.681 214.781 344.359 213.63 341.774 213.63 L 291.509 213.63 L 291.472 210.81 C 291.472 209.07 292.418 207.319 293.935 205.937 C 295.452 204.555 297.492 203.764 298.741 203.764 L 326.909 203.764 C 327.999 203.764 329.078 203.512 330.138 202.782 C 331.198 202.052 332.184 200.477 332.184 198.511 C 332.184 196.486 331.581 195.462 330.138 194.241 C 329.078 193.511 327.999 193.259 326.909 193.259 L 298.741 193.259 C 297.493 193.259 295.452 192.468 293.935 191.086 C 292.418 189.704 291.472 187.924 291.472 186.183 L 291.494 184.457 L 325.875 184.457 C 327.778 184.457 329.514 183.847 330.882 182.798 C 332.249 181.749 333.367 180.14 333.367 178.11 L 333.367 175.558 L 350.085 175.558 C 354.42 175.56 358.189 173.943 360.886 171.475 L 360.886 171.475 Z " fill="url(#_lgradient_19)"/></g></svg>