<?xml version="1.0" encoding="UTF-8" standalone="no"?>
<!-- Generator: Gravit.io -->
<svg xmlns="http://www.w3.org/2000/svg" xmlns:xlink="http://www.w3.org/1999/xlink" style="isolation:isolate" viewBox="0 0 500 500" width="500pt" height="500pt"><g><path d=" M 292.151 235.284 L 318.15 235.284 L 318.15 274.956 C 318.15 283.457 309.582 292.513 300.987 292.513 L 215.651 292.513 C 207.056 292.513 198.491 283.457 198.491 274.956 L 198.491 235.284 L 224.521 235.284 L 224.521 266.696 C 224.521 270.767 227.55 272.997 231.434 272.997 L 285.204 272.997 C 289.119 272.997 292.151 270.767 292.151 266.696 L 292.151 235.284 L 292.151 235.284 L 292.151 235.284 L 292.151 235.284 Z  M 25 292.513 L 99.694 219.959 L 87.458 207.479 L 122.665 207.479 L 205.13 292.513 L 170.72 292.513 L 157.321 278.812 L 73.237 278.812 L 59.41 292.513 L 25 292.513 L 25 292.513 L 25 292.513 Z  M 372.775 216.044 L 411.229 216.044 L 434.199 235.803 C 440.746 241.431 443.465 247.825 443.465 256.328 L 443.465 271.345 C 443.465 277.401 442.21 283.979 437.499 288.199 C 432.304 292.848 423.155 292.516 416.641 292.516 L 343.478 292.516 C 337.912 292.516 332.407 291.015 328.215 287.159 C 323.87 283.154 322.8 277.772 322.8 272.08 L 322.8 254.431 C 322.8 249.077 325.125 243.938 329.042 240.3 C 333.569 236.047 338.129 235.284 344.059 235.284 L 397.525 235.284 L 372.775 216.044 L 372.775 216.044 L 372.775 216.044 L 372.775 216.044 Z  M 449.001 292.513 L 449.001 235.284 L 475 235.284 L 475 292.513 L 449.001 292.513 L 449.001 292.513 L 449.001 292.513 Z  M 354.301 272.994 L 409.912 272.994 C 415.814 272.994 419.88 270.088 419.88 263.912 C 419.88 257.67 415.845 254.794 409.912 254.794 L 354.301 254.794 C 348.371 254.794 344.359 257.701 344.359 263.912 C 344.359 270.06 348.402 272.994 354.301 272.994 L 354.301 272.994 L 354.301 272.994 L 354.301 272.994 Z  M 92.904 259.293 L 138.204 259.293 L 115.874 236.507 L 92.904 259.293 L 92.904 259.293 L 92.904 259.293 Z " fill-rule="evenodd" fill="rgb(0,0,0)"/></g></svg>