<?xml version="1.0" encoding="UTF-8" standalone="no"?>
<!-- Generator: Gravit.io -->
<svg xmlns="http://www.w3.org/2000/svg" xmlns:xlink="http://www.w3.org/1999/xlink" style="isolation:isolate" viewBox="0 0 500 500" width="500pt" height="500pt"><g><path d=" M 250 475 C 310.099 475 366.6 451.595 409.098 409.098 C 451.595 366.601 475 310.099 475 250 C 475 189.901 451.595 133.399 409.098 90.902 C 366.601 48.404 310.099 25 250 25 C 125.934 25 25 125.934 25 250 C 25 310.099 48.404 366.601 90.902 409.098 C 133.399 451.595 189.901 475 250 475 L 250 475 Z " fill="rgb(0,0,0)"/><path d=" M 32.785 250 C 32.785 191.981 55.38 137.433 96.406 96.406 C 137.433 55.379 191.98 32.785 250 32.785 C 308.019 32.785 362.567 55.379 403.593 96.406 C 444.62 137.433 467.214 191.98 467.214 250 C 467.214 369.773 369.772 467.215 250 467.215 C 191.98 467.215 137.433 444.62 96.406 403.594 C 55.38 362.566 32.785 308.019 32.785 250 Z " fill="rgb(255,255,255)"/><path d=" M 250 41.737 C 134.981 41.737 41.737 134.981 41.737 250 C 41.737 365.018 134.981 458.263 250 458.263 C 365.018 458.263 458.262 365.018 458.262 250 C 458.262 134.981 365.018 41.737 250 41.737 L 250 41.737 Z " fill="rgb(0,0,0)"/><path d=" M 250 383.031 C 176.529 383.031 116.968 323.471 116.968 250 C 116.968 176.529 176.529 116.968 250 116.968 C 323.47 116.968 383.031 176.529 383.031 250 C 383.031 323.471 323.471 383.031 250 383.031 L 250 383.031 Z " fill="rgb(255,255,255)"/><path d=" M 125.527 250 L 250 250 L 250 125.527 C 181.256 125.527 125.527 181.257 125.527 250 Z  M 250 250 L 250 374.473 C 318.743 374.473 374.472 318.744 374.472 250 L 250 250 L 250 250 Z " fill="rgb(0,0,0)"/><path d=" M 152.238 123.072 C 147.828 118.786 141.012 117.495 134.612 121.462 C 135.835 118.294 135.336 115.062 134.687 113.278 C 131.93 108.251 130.967 107.622 128.695 105.715 C 121.34 99.543 113.599 104.812 108.063 111.41 L 81.314 143.287 L 123.363 178.571 L 151.572 144.955 C 158.017 137.274 159.013 129.658 152.238 123.072 L 152.238 123.072 Z  M 256.968 107.925 L 271.408 69.649 L 271.408 107.925 L 282.383 107.925 L 282.383 53.107 L 265.893 53.107 L 250.895 92.356 L 251.05 92.356 L 236.052 53.107 L 219.563 53.107 L 219.563 107.925 L 230.537 107.925 L 230.537 69.649 L 244.979 107.925 L 256.968 107.925 Z  M 404.523 130.731 L 383.86 159.985 L 415.894 144.777 L 424.376 155.251 L 373.956 179.692 L 364.002 167.3 L 383.833 138.303 L 383.716 138.157 L 351.229 151.526 L 341.177 139.214 L 375.567 94.978 L 384.049 105.452 L 362.513 133.623 L 395.424 119.494 L 404.523 130.731 L 404.523 130.731 Z " fill="rgb(255,255,255)"/><path d=" M 113.908 119.3 C 115.769 117.081 119.976 117.172 122.681 119.442 C 125.656 121.938 125.663 125.476 123.665 127.856 L 107.781 146.786 L 97.842 138.446 L 113.908 119.3 L 113.908 119.3 Z  M 142.171 141.632 L 125.423 161.591 L 114.921 152.778 L 131.804 132.657 C 133.711 130.385 137.962 129.723 140.828 132.13 C 144.074 134.852 144.395 138.982 142.171 141.632 Z " fill="rgb(0,0,0)"/></g></svg>