<?xml version="1.0" encoding="UTF-8" standalone="no"?>
<!-- Generator: Gravit.io -->
<svg xmlns="http://www.w3.org/2000/svg" xmlns:xlink="http://www.w3.org/1999/xlink" style="isolation:isolate" viewBox="0 0 500 500" width="500pt" height="500pt"><path d=" M 81.632 270.124 C 81.223 276.799 74.96 279.022 72.734 279.022 L 49.073 279.022 L 49.073 259.807 L 72.335 259.807 C 73.541 259.807 81.632 261.631 81.632 270.124 Z  M 108.529 272.35 C 108.529 251.716 92.753 248.686 92.753 248.686 C 92.753 248.686 104.08 243.227 104.08 229.474 C 104.08 207.023 84.865 200.351 77.179 200.351 L 25 200.351 L 25 299.45 L 80.821 299.45 C 91.138 299.45 108.529 288.933 108.529 272.35 Z  M 78.193 230.282 C 78.193 236.548 72.331 239.788 70.105 239.788 L 49.069 239.788 L 49.069 220.978 L 68.281 220.978 C 70.507 220.978 78.193 223.204 78.193 230.282 Z  M 183.967 249.899 C 183.967 264.263 175.876 278.214 162.124 278.214 C 148.168 278.214 140.078 264.259 140.078 249.899 C 140.078 236.146 148.168 222.394 162.124 222.799 C 175.879 222.799 183.967 236.548 183.967 249.899 Z  M 208.442 249.899 C 208.442 222.394 189.835 199.138 162.127 199.138 C 134.014 199.138 115.204 222.397 115.204 249.899 C 115.609 278.214 134.01 302.281 162.127 302.281 C 189.831 302.281 208.84 278.214 208.442 249.899 Z  M 293.379 269.718 C 293.379 229.471 238.774 246.46 242.011 227.65 C 243.227 220.573 250.507 219.559 256.777 219.559 C 267.489 219.559 274.978 228.055 274.978 228.055 L 289.741 212.482 C 278.62 202.168 270.529 197.719 254.956 197.719 C 234.933 197.719 216.526 210.256 216.526 230.684 C 216.526 259.405 248.281 259.405 259.408 262.841 C 266.08 264.661 267.901 266.482 267.492 270.931 C 267.492 275.789 259.81 280.437 254.55 280.437 C 243.227 281.245 236.551 275.38 228.667 267.492 L 213.499 283.876 C 227.251 297.224 239.386 302.281 254.554 301.875 C 274.168 301.271 293.379 290.143 293.379 269.718 L 293.379 269.718 Z  M 386.215 278.623 L 366.192 266.08 C 366.192 266.08 358.102 278.214 348.795 278.214 C 334.032 278.623 325.945 263.854 325.945 249.497 C 325.945 235.339 333.427 222.799 347.386 222.799 C 355.477 222.799 361.138 227.653 364.777 234.329 L 383.989 221.792 C 380.752 216.941 373.27 199.543 348.795 198.736 C 322.303 198.131 301.267 222.802 301.267 249.5 C 301.267 278.218 318.256 300.868 349.606 300.868 C 365.584 301.271 378.124 291.16 386.215 278.623 L 386.215 278.623 Z  M 475 299.45 L 475 200.348 L 450.12 200.348 L 450.12 237.558 L 419.787 237.558 L 419.787 200.348 L 394.305 200.348 L 394.305 299.446 L 419.179 299.446 L 419.179 259.807 L 450.12 259.807 L 450.12 299.45 L 475 299.45 L 475 299.45 Z " fill-rule="evenodd" fill="rgb(204,33,47)"/></svg>