<?xml version="1.0" encoding="UTF-8" standalone="no"?>
<!-- Generator: Gravit.io -->
<svg xmlns="http://www.w3.org/2000/svg" xmlns:xlink="http://www.w3.org/1999/xlink" style="isolation:isolate" viewBox="0 0 500 500" width="500pt" height="500pt"><g><path d=" M 25 111.541 L 33.967 388.459 L 77.552 388.459 L 76.599 273.627 L 113.147 273.627 L 113.147 237.832 L 76.599 237.832 L 76.734 147.725 L 124.45 147.725 L 124.192 111.541 L 25 111.541 Z  M 141.423 111.541 L 146.938 388.459 L 191.946 388.459 L 192.858 111.545 L 141.423 111.541 Z  M 352.42 111.541 L 352.42 146.469 L 387.97 146.469 L 386.947 388.459 L 430.491 388.459 L 439.74 146.433 L 475 146.433 L 474.73 111.541 L 352.42 111.541 Z  M 260.73 239.705 L 261.221 145.647 L 286.356 145.647 C 297.749 166.592 305.068 194.296 310.807 239.705 L 260.73 239.705 Z  M 220.578 388.451 L 262.244 388.451 L 262.71 273.946 L 312.632 273.946 C 316.555 294.155 317.516 356.542 317.75 388.451 L 358.168 388.451 C 361.993 247.081 350.145 167.178 317.414 111.541 L 216.765 111.541 L 220.578 388.451 Z " fill="rgb(167,2,48)"/></g></svg>