<?xml version="1.0" encoding="UTF-8" standalone="no"?>
<!-- Generator: Gravit.io -->
<svg xmlns="http://www.w3.org/2000/svg" xmlns:xlink="http://www.w3.org/1999/xlink" style="isolation:isolate" viewBox="0 0 500 500" width="500pt" height="500pt"><g><path d=" M 250.07 332.608 C 370.634 332.608 468.384 295.704 468.384 250.07 C 468.384 204.436 370.634 167.392 250.07 167.392 C 129.366 167.392 31.616 204.436 31.616 250.07 C 31.616 295.706 129.366 332.608 250.07 332.608 L 250.07 332.608 Z " fill-rule="evenodd" fill="rgb(66,94,153)"/><path d=" M 250.07 324.157 C 134.295 324.157 40.21 291.198 40.21 250.07 C 40.21 209.085 134.295 175.703 250.07 175.703 C 366.128 175.703 460.071 209.085 460.071 250.07 C 460.071 291.198 366.128 324.157 250.07 324.157 Z " fill-rule="evenodd" fill="rgb(255,255,255)"/><path d=" M 250.07 318.384 C 362.325 318.384 453.45 287.82 453.45 250.07 C 453.45 212.465 362.325 181.901 250.07 181.901 C 137.675 181.901 46.828 212.465 46.828 250.07 C 46.83 287.82 137.675 318.384 250.07 318.384 L 250.07 318.384 Z " fill-rule="evenodd" fill="rgb(66,94,153)"/><path d=" M 303.314 263.732 C 312.891 254.718 318.239 245.282 332.046 245.422 C 340.354 245.562 342.465 252.183 343.873 255.001 L 362.042 224.297 L 373.169 224.297 L 343.03 277.679 C 342.465 278.804 341.055 280.917 341.197 282.607 C 341.484 285.282 344.862 284.579 343.595 284.579 C 349.651 284.297 360.775 272.748 363.453 269.932 C 364.013 269.225 365.003 267.96 365.563 267.96 C 366.128 267.96 367.255 268.522 367.255 269.367 C 367.255 269.932 365.988 272.043 365.003 273.311 C 359.367 280.354 350.073 291.198 339.509 291.48 C 334.299 291.48 332.324 289.368 331.621 285.285 C 329.228 287.395 321.057 291.058 312.748 291.058 C 305.845 290.918 303.027 286.832 301.622 283.594 C 300.354 280.919 299.789 276.976 300.774 273.033 C 296.971 275.005 293.451 275.286 288.38 275.146 C 282.462 275.003 278.799 272.328 276.971 265.424 C 270.21 277.821 269.925 278.241 263.027 291.2 L 251.055 291.2 L 266.407 265.144 C 268.382 261.621 269.367 258.806 270.068 255.85 C 270.493 254.158 269.225 252.608 267.392 252.47 C 265.422 252.47 262.186 254.443 259.084 257.398 C 259.084 257.398 251.198 265.849 245.422 274.44 C 239.926 282.611 230.492 291.905 220.211 291.905 C 212.745 291.905 205.984 287.822 204.577 279.934 C 204.577 279.934 203.871 281.764 197.251 285.567 C 196.688 285.847 195.28 286.692 194.86 286.412 C 193.59 285.287 192.887 283.877 192.745 282.889 C 193.168 283.032 194.013 282.327 196.688 280.214 C 201.899 276.271 203.026 273.168 203.026 273.168 C 204.292 270.493 206.549 266.267 208.097 263.309 C 212.325 254.858 219.646 246.267 231.618 245.844 C 233.59 245.844 234.153 246.69 234.576 247.395 C 235.701 248.24 235.281 249.93 235.281 249.93 C 226.83 251.198 221.056 256.126 217.533 260.916 C 215.423 264.014 213.168 269.085 212.745 272.746 C 211.9 279.084 214.858 283.307 219.224 284.295 C 227.392 285.562 234.153 279.647 239.506 270.493 C 240.916 268.097 241.901 261.899 241.901 258.519 C 241.901 255.138 240.069 251.618 238.661 250.208 C 238.661 247.815 240.209 246.265 242.039 246.265 C 242.602 246.265 243.167 246.265 243.729 246.827 C 246.547 249.645 248.097 254.998 248.097 259.081 C 248.097 260.492 248.097 261.899 247.815 263.309 C 253.731 256.126 261.194 246.83 266.972 244.999 C 268.097 244.437 269.225 244.437 270.35 244.437 C 280.914 244.154 279.506 253.733 279.506 253.733 C 285.137 247.255 289.083 244.859 294.294 245.139 C 299.929 245.422 301.9 249.367 301.9 252.465 C 301.757 256.126 299.086 260.351 294.441 260.492 C 290.35 260.492 287.958 258.519 286.69 254.858 C 284.014 255.846 282.749 257.676 282.184 261.337 C 281.337 265.985 284.86 269.648 289.365 269.648 C 297.114 269.65 300.496 266.267 303.314 263.732 L 303.314 263.732 Z  M 311.763 203.029 C 311.763 207.537 295.986 216.128 282.604 216.128 C 261.761 216.128 240.071 206.127 230.075 203.874 C 219.228 201.338 209.369 199.226 201.621 199.226 C 174.437 199.226 162.323 210.917 162.888 221.621 C 163.171 225.987 166.689 228.805 171.902 227.817 C 177.538 226.832 185.424 221.479 187.397 216.831 C 187.819 215.845 188.947 215.703 189.369 215.985 C 190.214 216.691 189.932 217.676 189.932 217.676 C 189.227 223.169 180.776 238.381 166.129 238.381 C 157.96 238.381 152.467 230.775 152.607 223.309 C 152.747 209.365 166.974 195.28 202.044 195.28 C 208.662 195.28 216.128 195.843 224.299 197.253 C 233.733 198.943 257.253 202.886 276.409 203.169 C 283.454 203.169 292.468 203.451 299.791 202.324 C 307.538 201.056 305.847 200.774 308.948 200.774 C 311.763 200.774 311.763 201.901 311.763 203.029 L 311.763 203.029 Z " fill-rule="evenodd" fill="rgb(255,255,255)"/><path d=" M 332.611 252.043 C 327.678 251.48 321.479 255.706 316.411 261.904 C 313.876 265.002 311.2 270.918 310.776 274.438 C 310.215 277.961 311.2 281.482 312.468 282.467 C 313.736 283.452 319.371 286.41 328.103 277.538 C 333.031 272.608 337.819 264.579 337.819 264.579 L 336.269 264.154 C 339.227 258.664 338.659 252.745 332.611 252.043 L 332.611 252.043 Z " fill-rule="evenodd" fill="rgb(66,94,153)"/><path d=" M 229.65 235.423 C 229.65 236.973 231.76 238.241 233.593 238.383 C 233.17 239.931 233.31 240.636 232.608 240.496 C 228.382 240.496 226.692 236.411 226.692 236.411 C 221.061 237.396 215.568 238.101 204.439 239.228 C 176.41 284.582 167.679 292.048 150.494 292.048 C 138.24 292.048 127.396 284.019 127.114 269.652 C 126.971 260.921 134.015 250.215 147.114 246.974 C 148.664 246.974 149.226 247.539 149.226 248.384 C 149.226 248.949 148.664 249.652 147.394 250.215 C 143.591 251.625 136.972 259.088 136.972 265.992 C 136.972 271.202 140.213 276.978 145.704 278.243 C 147.254 278.668 148.664 278.526 150.072 278.526 C 163.733 278.526 179.085 263.174 195.705 239.793 C 193.03 239.933 181.621 241.203 178.803 244.441 C 177.538 245.427 176.693 244.864 176.41 243.736 C 176.41 243.454 176.833 242.469 177.258 241.904 C 181.763 236.833 195.285 235.708 198.523 235.285 C 211.2 215.848 227.537 203.734 230.917 203.876 C 231.48 203.876 232.75 204.721 232.185 206.129 C 232.043 206.411 230.635 207.959 230.075 208.382 C 227.257 210.917 217.678 217.115 207.257 234.72 C 215.708 234.298 225.567 232.608 225.567 232.608 C 225.567 232.608 225.004 230.777 225.004 229.227 C 225.426 223.171 228.947 219.508 233.455 220.213 C 235.993 220.636 237.681 222.749 237.681 225.002 C 237.681 227.397 235.85 230.917 234.018 232.608 C 232.748 233.59 231.338 234.578 229.65 235.423 L 229.65 235.423 Z " fill-rule="evenodd" fill="rgb(255,255,255)"/><path d=" M 228.942 232.323 C 228.942 232.323 230.352 232.465 232.463 230.07 C 233.308 229.225 234.718 226.689 234.435 224.999 C 234.293 224.154 233.873 223.169 232.888 223.309 C 230.773 223.734 229.505 224.719 228.942 226.832 C 228.24 229.085 228.522 230.635 228.942 232.323 Z " fill-rule="evenodd" fill="rgb(66,94,153)"/></g></svg>