<?xml version="1.0" encoding="UTF-8" standalone="no"?>
<!-- Generator: Gravit.io -->
<svg xmlns="http://www.w3.org/2000/svg" xmlns:xlink="http://www.w3.org/1999/xlink" style="isolation:isolate" viewBox="0 0 500 500" width="500pt" height="500pt"><g><path d=" M 174.274 247.574 L 205.536 201.819 C 206.734 200.022 205.296 197.986 202.781 197.986 L 178.647 197.806 C 176.849 197.806 173.256 200.082 171.699 202.058 L 160.801 216.252 L 145.65 236.074 L 145.769 201.817 C 145.769 199.483 143.313 197.984 141.817 197.984 L 114.145 197.984 C 112.228 197.984 110.492 198.703 110.433 202.235 C 110.375 205.709 114.684 206.428 114.684 207.385 L 114.684 298.956 C 114.684 300.693 117.08 303.326 118.758 303.326 L 142.473 303.207 C 144.151 303.146 145.587 300.751 145.587 299.133 L 145.645 260.984 L 160.797 279.728 L 176.847 299.493 C 178.163 301.05 180.738 303.207 183.435 303.207 L 209.187 303.027 C 211.643 303.027 211.403 300.032 210.805 299.254 C 198.562 282.075 186.385 264.848 174.274 247.574 L 174.274 247.574 Z  M 263.146 197.988 L 235.778 197.988 C 232.545 197.988 231.825 199.905 231.286 201.941 C 231.884 205.653 235.778 206.671 235.778 206.731 L 235.778 299.138 C 235.778 301.594 237.277 303.212 239.373 303.212 L 249.195 303.151 L 263.807 303.032 C 266.501 303.032 267.217 301.416 267.217 299.138 L 267.217 201.819 C 267.217 199.485 265.242 197.988 263.146 197.988 L 263.146 197.988 Z " fill-rule="evenodd" fill="rgb(204,34,41)"/><path d=" M 346.45 150.795 C 317.345 143.43 284.589 139.298 249.972 139.298 C 249.732 139.298 249.491 139.356 249.195 139.356 C 217.813 139.356 187.868 142.83 160.799 148.998 C 84.8 166.367 31.618 205.174 31.618 250.03 C 31.618 294.889 84.8 333.694 160.797 351.061 C 187.866 357.231 217.809 360.702 249.192 360.702 L 249.97 360.702 C 284.586 360.702 317.343 356.631 346.448 349.265 C 418.613 331.18 468.382 293.451 468.382 250.03 C 468.386 206.612 418.618 168.881 346.45 150.795 L 346.45 150.795 Z  M 346.45 325.131 C 317.765 331.78 284.885 335.552 249.972 335.552 C 249.732 335.552 249.491 335.494 249.195 335.494 C 217.573 335.494 187.569 332.319 160.799 326.749 C 93.783 312.795 47.549 283.629 47.549 250.033 C 47.549 216.436 93.783 187.27 160.799 173.317 C 187.569 167.747 217.573 164.572 249.195 164.513 L 249.972 164.513 C 284.885 164.513 317.765 168.286 346.45 174.932 C 409.511 189.425 452.453 217.692 452.453 250.03 C 452.453 282.369 409.511 310.638 346.45 325.131 Z " fill-rule="evenodd" fill="rgb(204,34,41)"/><path d=" M 365.313 201.941 C 364.419 199.903 362.86 197.988 360.821 197.988 L 323.812 197.988 C 322.495 197.988 320.697 199.067 320.697 200.862 C 320.639 206.131 326.151 205.954 325.85 206.731 L 294.648 298.778 C 294.111 300.335 295.487 303.209 297.403 303.209 L 319.143 303.029 C 321.057 303.029 323.753 301.414 324.533 299.077 L 334.833 268.177 C 338.307 257.874 341.783 247.574 345.194 237.274 C 345.376 236.856 345.915 236.616 346.452 236.616 C 347.29 236.616 348.189 236.915 348.367 237.515 L 368.551 299.439 C 368.971 300.816 371.785 303.032 373.279 303.032 L 395.917 303.212 C 397.234 303.212 398.793 300.576 398.375 299.378 L 365.313 201.941 L 365.313 201.941 Z " fill-rule="evenodd" fill="rgb(204,34,41)"/></g></svg>