<?xml version="1.0" encoding="UTF-8" standalone="no"?>
<!-- Generator: Gravit.io -->
<svg xmlns="http://www.w3.org/2000/svg" xmlns:xlink="http://www.w3.org/1999/xlink" style="isolation:isolate" viewBox="0 0 500 500" width="500pt" height="500pt"><g><linearGradient id="_lgradient_1" x1="0.11658146964856228" y1="0.17888178913738023" x2="0.8834185303514378" y2="0.8211182108626198" gradientTransform="matrix(440.156,0,0,440.156,29.922,29.922)" gradientUnits="userSpaceOnUse"><stop offset="0%" stop-opacity="1" style="stop-color:rgb(255,255,255)"/><stop offset="10%" stop-opacity="1" style="stop-color:rgb(231,232,230)"/><stop offset="10%" stop-opacity="1" style="stop-color:rgb(205,208,208)"/><stop offset="20%" stop-opacity="1" style="stop-color:rgb(181,187,189)"/><stop offset="20%" stop-opacity="1" style="stop-color:rgb(165,172,175)"/><stop offset="30%" stop-opacity="1" style="stop-color:rgb(155,163,167)"/><stop offset="30%" stop-opacity="1" style="stop-color:rgb(152,160,164)"/><stop offset="40%" stop-opacity="1" style="stop-color:rgb(130,138,143)"/><stop offset="50%" stop-opacity="1" style="stop-color:rgb(102,112,117)"/><stop offset="60%" stop-opacity="1" style="stop-color:rgb(83,92,99)"/><stop offset="70%" stop-opacity="1" style="stop-color:rgb(71,81,88)"/><stop offset="80%" stop-opacity="1" style="stop-color:rgb(67,77,84)"/><stop offset="100%" stop-opacity="1" style="stop-color:rgb(71,81,87)"/></linearGradient><path d=" M 470.078 250 C 470.078 371.641 371.641 470.078 250 470.078 C 128.359 470.078 29.922 371.641 29.922 250 C 29.922 128.359 128.359 29.922 250 29.922 C 371.641 29.922 470.078 128.359 470.078 250 Z  M 250 43.281 C 135.391 43.281 43.281 135.391 43.281 250 C 43.281 364.609 136.094 456.719 250 456.719 C 364.609 456.719 456.719 363.906 456.719 250 C 456.719 135.391 364.609 43.281 250 43.281 Z " fill="url(#_lgradient_1)"/><linearGradient id="_lgradient_2" x1="0.11685374149659865" y1="0.17787414965986392" x2="0.8821598639455782" y2="0.8207312925170077" gradientTransform="matrix(413.438,0,0,413.438,43.281,43.281)" gradientUnits="userSpaceOnUse"><stop offset="0%" stop-opacity="1" style="stop-color:rgb(11,31,42)"/><stop offset="20%" stop-opacity="1" style="stop-color:rgb(51,63,71)"/><stop offset="50%" stop-opacity="1" style="stop-color:rgb(119,127,132)"/><stop offset="50%" stop-opacity="1" style="stop-color:rgb(129,137,141)"/><stop offset="70%" stop-opacity="1" style="stop-color:rgb(179,184,184)"/><stop offset="80%" stop-opacity="1" style="stop-color:rgb(210,213,211)"/><stop offset="80%" stop-opacity="1" style="stop-color:rgb(222,224,221)"/><stop offset="100%" stop-opacity="1" style="stop-color:rgb(251,251,251)"/></linearGradient><path d=" M 250 43.281 C 135.391 43.281 43.281 135.391 43.281 250 C 43.281 364.609 136.094 456.719 250 456.719 C 364.609 456.719 456.719 363.906 456.719 250 C 456.719 135.391 364.609 43.281 250 43.281 Z  M 250 443.359 C 143.125 443.359 56.641 356.875 56.641 250 C 56.641 143.125 143.125 56.641 250 56.641 C 356.875 56.641 443.359 143.125 443.359 250 C 443.359 356.875 356.875 443.359 250 443.359 Z " fill="url(#_lgradient_2)"/><g opacity="0.4"><linearGradient id="_lgradient_3" x1="0.6708906249999984" y1="0.9697343750000003" x2="0.32870312500000054" y2="0.029125000000000734" gradientTransform="matrix(450,0,0,450,25,25)" gradientUnits="userSpaceOnUse"><stop offset="0%" stop-opacity="1" style="stop-color:rgb(225,227,225)"/><stop offset="10%" stop-opacity="1" style="stop-color:rgb(193,197,196)"/><stop offset="30%" stop-opacity="1" style="stop-color:rgb(155,161,162)"/><stop offset="50%" stop-opacity="1" style="stop-color:rgb(125,132,135)"/><stop offset="70%" stop-opacity="0" style="stop-color:rgb(104,112,116)"/><stop offset="80%" stop-opacity="0" style="stop-color:rgb(91,100,105)"/><stop offset="100%" stop-opacity="0" style="stop-color:rgb(87,96,101)"/></linearGradient><path d=" M 250 470.078 C 371.641 470.078 470.078 371.641 470.078 250 C 470.078 128.359 371.641 29.922 250 29.922 C 128.359 29.922 29.922 128.359 29.922 250 C 29.922 371.641 128.359 470.078 250 470.078 Z  M 250 25 C 373.75 25 475 126.25 475 250 C 475 373.75 373.75 475 250 475 C 126.25 475 25 373.75 25 250 C 25 126.25 126.25 25 250 25 Z " fill="url(#_lgradient_3)"/></g><path d=" M 40.469 250.703 C 40.469 135.391 133.984 40.469 250 40.469 C 366.016 40.469 459.531 134.688 459.531 250.703 C 459.531 366.016 366.016 459.531 250 459.531 C 133.984 459.531 40.469 366.016 40.469 250.703 Z  M 105.859 105.859 C 68.594 143.125 45.391 194.453 45.391 250.703 C 45.391 306.953 68.594 358.281 105.156 394.844 C 142.422 431.406 193.75 454.609 250 454.609 C 306.25 454.609 357.578 432.109 394.141 394.844 C 431.406 358.281 453.906 306.953 453.906 250.703 C 453.906 194.453 430.703 143.125 394.141 105.859 C 357.578 68.594 306.25 45.391 250 45.391 C 193.75 45.391 142.422 68.594 105.859 105.859 Z " fill="rgb(255,255,255)"/><g opacity="0.4"><linearGradient id="_lgradient_4" x1="0.250018115942029" y1="0.06704710144927535" x2="0.7499818840579711" y2="0.9329528985507258" gradientTransform="matrix(388.125,0,0,388.125,55.938,55.938)" gradientUnits="userSpaceOnUse"><stop offset="0%" stop-opacity="1" style="stop-color:rgb(225,227,225)"/><stop offset="10%" stop-opacity="1" style="stop-color:rgb(193,197,196)"/><stop offset="30%" stop-opacity="1" style="stop-color:rgb(155,161,162)"/><stop offset="50%" stop-opacity="1" style="stop-color:rgb(125,132,135)"/><stop offset="70%" stop-opacity="0" style="stop-color:rgb(104,112,116)"/><stop offset="80%" stop-opacity="0" style="stop-color:rgb(91,100,105)"/><stop offset="100%" stop-opacity="0" style="stop-color:rgb(87,96,101)"/></linearGradient><path d=" M 250 444.062 C 197.969 444.062 149.453 423.672 112.891 387.109 C 76.328 350.547 55.938 302.031 55.938 250 C 55.938 197.969 76.328 149.453 112.891 112.891 C 149.453 76.328 197.969 55.938 250 55.938 C 302.031 55.938 350.547 76.328 387.109 112.891 C 423.672 149.453 444.062 197.969 444.062 250 C 444.062 302.031 423.672 350.547 387.109 387.109 C 350.547 423.672 302.031 444.062 250 444.062 Z  M 250 438.437 C 299.922 438.437 347.734 418.75 382.891 383.594 C 418.75 347.734 437.734 300.625 437.734 250.703 C 437.734 200.781 418.047 152.969 382.891 117.812 C 347.031 81.953 299.922 62.969 250 62.969 C 200.078 62.969 152.266 82.656 117.109 117.812 C 81.25 152.266 61.562 200.078 61.562 250 C 61.562 299.922 81.25 347.734 116.406 382.891 C 152.266 418.75 200.078 438.437 250 438.437 Z " fill="url(#_lgradient_4)"/></g><path d=" M 420.859 341.406 C 417.344 338.594 281.641 231.016 281.641 231.016 L 250 50.312 C 247.891 51.016 245.078 53.125 243.672 55.938 L 221.172 231.719 L 81.25 339.297 C 81.25 339.297 78.437 342.813 77.031 344.922 C 76.328 346.328 76.328 348.438 76.328 350.547 L 249.297 279.531 L 422.266 350.547 C 423.672 347.031 422.266 343.516 420.859 341.406 Z " fill="rgb(255,255,255)"/><path d=" M 251.406 255.625 L 250 287.969 L 408.906 351.953 C 414.531 354.766 418.75 353.359 422.969 350.547 L 253.516 254.922 C 252.813 254.219 251.406 254.922 251.406 255.625 Z " fill="rgb(86,95,100)"/><linearGradient id="_lgradient_5" x1="0.5036065573770492" y1="0.4789958921586832" x2="0.4339344262295082" y2="0.5937499905193386" gradientTransform="matrix(171.562,0,0,98.856,251.406,254.631)" gradientUnits="userSpaceOnUse"><stop offset="0%" stop-opacity="1" style="stop-color:rgb(39,52,60)"/><stop offset="100%" stop-opacity="0" style="stop-color:rgb(0,17,30)"/></linearGradient><path d=" M 251.406 255.625 C 251.406 255.625 260.547 271.797 271.094 283.047 C 285.859 299.219 305.547 310.469 305.547 310.469 L 408.906 351.953 C 414.531 354.766 418.75 353.359 422.969 350.547 L 253.516 254.922 C 252.813 254.219 251.406 254.922 251.406 255.625 Z " fill="url(#_lgradient_5)"/><path d=" M 422.266 344.219 C 422.266 343.516 421.563 342.813 420.859 341.406 L 276.016 235.234 L 256.328 247.891 C 256.328 247.891 257.734 248.594 258.438 247.891 C 260.547 247.188 264.766 246.484 268.984 247.891 C 272.5 249.297 422.266 344.922 422.266 344.219 C 422.266 344.922 422.266 344.922 422.266 344.219 Z " fill="rgb(164,170,174)" fill-opacity="0.6"/><path d=" M 417.344 337.891 L 282.344 231.016 L 276.016 235.234 L 420.859 342.109 C 420.156 340.703 418.75 339.297 417.344 337.891 Z " fill="rgb(51,62,70)"/><path d=" M 253.516 245.078 L 252.813 245.781 C 252.813 245.781 252.813 247.188 254.219 246.484 C 254.922 245.781 275.312 235.234 282.344 231.016 L 257.734 62.266 C 257.031 55.938 254.219 53.125 249.297 51.016 L 252.109 246.484 L 253.516 245.078 Z " fill="rgb(86,95,100)"/><path d=" M 241.562 62.266 L 241.562 71.406 L 226.094 226.797 C 226.094 228.906 226.797 231.016 228.906 232.422 L 238.047 239.453 L 244.375 67.891 L 245.078 54.531 C 242.969 55.938 242.266 58.75 241.562 62.266 Z  M 233.125 242.266 L 224.687 235.234 L 81.953 338.594 C 81.953 338.594 77.734 341.406 77.031 344.219 L 81.953 341.406 L 231.719 247.188 C 234.531 245.781 235.234 244.375 233.125 242.266 Z " fill="rgb(164,170,174)" fill-opacity="0.6"/><path d=" M 247.891 255.625 C 247.891 254.922 247.188 254.219 246.484 254.922 L 76.328 351.25 C 80.547 354.062 84.766 354.766 90.391 352.656 L 249.297 288.672 L 247.891 255.625 Z " fill="rgb(86,95,100)"/><linearGradient id="_lgradient_6" x1="1.709523809523808" y1="0.9118819188191882" x2="1.3465617277311341" y2="0.3285500016523907" gradientTransform="matrix(29.531,0,0,190.547,252.813,55.938)" gradientUnits="userSpaceOnUse"><stop offset="10%" stop-opacity="1" style="stop-color:rgb(2,19,31)"/><stop offset="90%" stop-opacity="0" style="stop-color:rgb(2,19,31)"/></linearGradient><path d=" M 252.813 245.781 L 253.516 245.078 L 252.813 245.781 C 252.813 245.781 252.813 246.484 253.516 246.484 L 254.219 246.484 C 254.922 245.781 275.312 235.234 282.344 231.016 L 279.531 210.625 L 257.734 62.266 C 257.734 59.453 257.031 57.344 255.625 55.938 C 255.625 55.938 266.172 197.969 266.172 213.437 C 266.172 233.828 252.813 245.781 252.813 245.781 Z " fill="url(#_lgradient_6)"/><linearGradient id="_lgradient_7" x1="1.0033333333333334" y1="0.26051708816584807" x2="0.8326016260162602" y2="0.3092975759707262" gradientTransform="matrix(172.969,0,0,99.252,76.328,254.631)" gradientUnits="userSpaceOnUse"><stop offset="20%" stop-opacity="1" style="stop-color:rgb(2,19,31)"/><stop offset="90%" stop-opacity="0" style="stop-color:rgb(2,19,31)"/></linearGradient><path d=" M 247.891 255.625 C 247.891 254.922 247.188 254.219 246.484 254.922 L 76.328 351.25 C 80.547 354.062 84.766 354.766 90.391 352.656 L 249.297 288.672 L 247.891 255.625 Z " fill="url(#_lgradient_7)" fill-opacity="0.8"/><g opacity="0.8"><linearGradient id="_lgradient_8" x1="0.5312658227848099" y1="0.6494995230988083" x2="0.5059493670886074" y2="0.5862083838583021" gradientTransform="matrix(166.641,0,0,96.392,82.656,257.031)" gradientUnits="userSpaceOnUse"><stop offset="0%" stop-opacity="1" style="stop-color:rgb(2,19,31)"/><stop offset="10%" stop-opacity="1" style="stop-color:rgb(2,19,31)"/><stop offset="100%" stop-opacity="0" style="stop-color:rgb(2,19,31)"/></linearGradient><path d=" M 90.391 351.953 L 249.297 287.969 L 247.891 257.031 C 245.078 265.469 240.156 274.609 226.797 281.641 C 216.953 287.266 122.734 333.672 88.984 349.844 C 86.875 351.25 84.062 351.953 82.656 352.656 C 85.469 354.062 87.578 353.359 90.391 351.953 Z " fill="url(#_lgradient_8)"/></g><linearGradient id="_lgradient_9" x1="0.7876595744680843" y1="0.48562598821331016" x2="0.06906838775421764" y2="0.5701661278267057" gradientTransform="matrix(33.047,0,0,195.666,249.297,51.016)" gradientUnits="userSpaceOnUse"><stop offset="30%" stop-opacity="1" style="stop-color:rgb(2,19,31)"/><stop offset="30%" stop-opacity="1" style="stop-color:rgb(2,19,31)"/><stop offset="80%" stop-opacity="0" style="stop-color:rgb(2,19,31)"/></linearGradient><path d=" M 253.516 245.078 L 252.813 245.781 C 252.813 245.781 252.813 247.188 254.219 246.484 C 254.922 245.781 275.312 235.234 282.344 231.016 L 257.734 62.266 C 257.031 55.938 254.219 53.125 249.297 51.016 L 252.109 246.484 L 253.516 245.078 Z " fill="url(#_lgradient_9)"/><linearGradient id="_lgradient_10" x1="0.8102127659574458" y1="0.4835776915337068" x2="0.32462930956012814" y2="0.5468871382608677" gradientTransform="matrix(33.047,0,0,195.666,249.297,51.016)" gradientUnits="userSpaceOnUse"><stop offset="40%" stop-opacity="1" style="stop-color:rgb(39,52,60)"/><stop offset="100%" stop-opacity="0" style="stop-color:rgb(59,71,78)"/></linearGradient><path d=" M 253.516 245.078 L 252.813 245.781 C 252.813 245.781 252.813 247.188 254.219 246.484 C 254.922 245.781 275.312 235.234 282.344 231.016 L 257.734 62.266 C 257.031 55.938 254.219 53.125 249.297 51.016 L 252.109 246.484 L 253.516 245.078 Z " fill="url(#_lgradient_10)"/><linearGradient id="_lgradient_11" x1="-0.0475336322869955" y1="0.31838709677419363" x2="1.090009571482575" y2="0.9748188380175653" gradientTransform="matrix(156.797,0,0,283.359,29.922,165.625)" gradientUnits="userSpaceOnUse"><stop offset="0%" stop-opacity="0" style="stop-color:rgb(36,48,58)"/><stop offset="0%" stop-opacity="0" style="stop-color:rgb(37,50,59)"/><stop offset="10%" stop-opacity="1" style="stop-color:rgb(39,52,60)"/></linearGradient><path d=" M 60.859 337.188 C 55.938 325.937 27.813 271.094 58.75 165.625 L 46.797 165.625 C 40.469 186.719 35.547 199.375 32.734 218.359 C 32.734 218.359 31.328 225.391 30.625 233.125 C 29.922 240.859 29.922 245.078 29.922 250 C 29.922 292.188 40.469 316.797 40.469 316.797 C 51.719 351.953 71.406 383.594 98.125 407.5 C 121.328 427.891 157.187 443.359 186.719 448.984 C 181.797 448.281 97.422 412.422 60.859 337.188 Z " fill="url(#_lgradient_11)"/><linearGradient id="_lgradient_12" x1="0.5" y1="1.0210907220613166" x2="0.5000000000000001" y2="0.00873606311803865" gradientTransform="matrix(6.328,0,0,33.338,246.484,253.928)" gradientUnits="userSpaceOnUse"><stop offset="30%" stop-opacity="1" style="stop-color:rgb(165,171,175)"/><stop offset="100%" stop-opacity="0" style="stop-color:rgb(165,171,175)"/></linearGradient><path d=" M 252.813 254.219 L 246.484 254.219 C 247.188 254.219 247.891 254.219 247.891 254.922 L 249.297 287.266 L 250 287.266 L 251.406 254.922 C 251.406 254.219 252.109 253.516 252.813 254.219 Z " fill="url(#_lgradient_12)"/><linearGradient id="_lgradient_13" x1="0.5" y1="-4.163336342344337e-17" x2="0.49999999999999983" y2="1" gradientTransform="matrix(220.078,0,0,428.906,250,41.172)" gradientUnits="userSpaceOnUse"><stop offset="0%" stop-opacity="1" style="stop-color:rgb(222,224,221)"/><stop offset="0%" stop-opacity="1" style="stop-color:rgb(197,201,199)"/><stop offset="0%" stop-opacity="1" style="stop-color:rgb(158,164,165)"/><stop offset="0%" stop-opacity="1" style="stop-color:rgb(130,137,140)"/><stop offset="0%" stop-opacity="1" style="stop-color:rgb(113,121,125)"/><stop offset="0%" stop-opacity="1" style="stop-color:rgb(107,115,120)"/><stop offset="20%" stop-opacity="1" style="stop-color:rgb(51,63,71)"/><stop offset="50%" stop-opacity="1" style="stop-color:rgb(39,52,60)"/><stop offset="80%" stop-opacity="1" style="stop-color:rgb(51,63,71)"/><stop offset="100%" stop-opacity="1" style="stop-color:rgb(67,77,84)"/></linearGradient><path d=" M 320.313 41.172 C 394.141 69.297 463.75 146.641 463.75 244.375 C 463.75 362.5 369.531 458.828 250 458.828 L 250 470.078 C 369.531 470.078 470.078 371.641 470.078 250 C 470.078 152.969 408.203 71.406 320.313 41.172 Z " fill="url(#_lgradient_13)"/><line x1="252.109" y1="29.922" x2="250" y2="29.922"/><linearGradient id="_lgradient_14" x1="0.8445778046182255" y1="0.12207823960880203" x2="0.44782018071483853" y2="0.7039894213337695" gradientTransform="matrix(185.56,0,0,287.578,271.094,46.797)" gradientUnits="userSpaceOnUse"><stop offset="70%" stop-opacity="1" style="stop-color:rgb(39,52,60)"/><stop offset="70%" stop-opacity="1" style="stop-color:rgb(43,55,63)"/><stop offset="70%" stop-opacity="1" style="stop-color:rgb(54,66,74)"/><stop offset="70%" stop-opacity="1" style="stop-color:rgb(73,84,91)"/><stop offset="80%" stop-opacity="0" style="stop-color:rgb(100,109,115)"/><stop offset="80%" stop-opacity="0" style="stop-color:rgb(134,141,146)"/><stop offset="80%" stop-opacity="0" style="stop-color:rgb(176,181,184)"/><stop offset="80%" stop-opacity="0" style="stop-color:rgb(225,227,228)"/><stop offset="80%" stop-opacity="0" style="stop-color:rgb(255,255,255)"/></linearGradient><path d=" M 438.437 167.031 C 389.219 53.828 278.125 47.5 271.797 46.797 L 271.094 46.797 C 356.172 62.266 410.312 117.812 429.297 176.172 L 429.297 176.875 C 437.734 199.375 441.953 223.281 442.656 249.297 C 443.359 273.906 437.734 301.328 427.188 326.641 C 426.484 330.156 425.781 334.375 425.078 334.375 L 436.328 334.375 C 470.078 271.094 455.313 207.109 438.437 167.031 Z " fill="url(#_lgradient_14)"/><path d=" M 40.469 250.703 C 40.469 135.391 133.984 40.469 250 40.469 C 366.016 40.469 459.531 134.688 459.531 250.703 C 459.531 366.016 366.016 459.531 250 459.531 C 133.984 459.531 40.469 366.016 40.469 250.703 Z  M 105.859 105.859 C 68.594 143.125 45.391 194.453 45.391 250.703 C 45.391 306.953 68.594 358.281 105.156 394.844 C 142.422 431.406 193.75 454.609 250 454.609 C 306.25 454.609 357.578 432.109 394.141 394.844 C 431.406 358.281 453.906 306.953 453.906 250.703 C 453.906 194.453 430.703 143.125 394.141 105.859 C 357.578 68.594 306.25 45.391 250 45.391 C 193.75 45.391 142.422 68.594 105.859 105.859 Z " fill="rgb(251,251,251)"/><path d=" M 80.547 340 L 223.984 236.641 C 231.719 240.859 244.375 246.484 245.781 246.484 C 247.188 247.188 247.188 245.781 247.188 245.781 L 229.609 231.016 C 227.5 229.609 226.797 227.5 226.797 225.391 L 243.672 55.938 C 242.969 56.641 242.969 58.047 242.266 58.75 C 241.562 60.156 241.562 60.859 241.562 62.266 L 216.953 231.719 L 81.953 337.891 C 81.25 338.594 80.547 339.297 80.547 340 Z " fill="rgb(51,63,71)"/></g></svg>