<?xml version="1.0" encoding="UTF-8" standalone="no"?>
<!-- Generator: Gravit.io -->
<svg xmlns="http://www.w3.org/2000/svg" xmlns:xlink="http://www.w3.org/1999/xlink" style="isolation:isolate" viewBox="0 0 500 500" width="500pt" height="500pt"><g><path d=" M 333.126 202.776 C 316.014 173.552 284.337 155.41 250.246 155.41 C 216.155 155.41 184.478 173.552 167.366 202.776 L 25 202.776 L 26.25 204.531 C 26.689 205.15 71.21 267.042 141.313 312.507 L 141.592 312.68 L 178.674 312.68 C 196.903 332.956 222.943 344.59 250.253 344.59 C 277.562 344.59 303.609 332.956 321.838 312.68 L 358.415 312.68 L 358.694 312.507 C 428.797 267.042 473.305 205.143 473.75 204.531 L 475 202.776 L 333.126 202.776 Z " fill="rgb(0,0,0)"/><path d=" M 459.224 219.336 L 339.601 219.336 C 341.463 224.621 342.839 230.126 343.716 235.79 L 346.867 235.79 C 346.059 231.563 344.955 227.398 343.563 223.325 C 343.563 223.325 444.619 220.952 459.005 219.609 C 450.263 230.032 441.09 240.086 431.509 249.744 L 344.913 249.744 L 344.926 249.997 C 344.926 255.541 344.341 260.933 343.404 266.204 L 347.918 266.204 C 348.47 262.202 348.875 258.147 348.875 253.992 L 348.868 253.739 C 348.868 253.739 418.612 251.479 431.157 250.096 C 420.552 260.793 409.458 270.992 397.91 280.664 L 339.601 280.664 C 337.586 286.386 335.014 291.897 331.923 297.117 L 337.992 297.117 C 340.1 293.102 342.041 288.987 343.563 284.652 C 343.563 284.652 386.675 282.552 397.332 281.142 C 384.721 291.686 371.5 301.478 357.737 310.466 L 320.867 310.466 L 320.535 310.832 C 302.68 330.896 277.101 342.374 250.243 342.374 C 223.384 342.374 197.806 330.896 179.951 310.832 L 179.618 310.466 L 142.243 310.466 C 128.475 301.472 115.247 291.676 102.628 281.129 C 113.71 282.525 160.685 284.652 160.685 284.652 C 162.746 289.047 165.697 293.155 168.35 297.117 L 168.563 297.117 C 165.468 291.898 162.894 286.387 160.878 280.664 L 102.076 280.664 C 90.527 270.994 79.433 260.794 68.83 250.096 C 81.647 251.499 154.336 253.912 154.336 253.992 C 154.336 257.914 155.798 261.757 156.982 265.533 C 156.065 260.404 155.589 255.207 155.559 249.997 L 155.572 249.744 L 68.491 249.744 C 58.847 240.014 49.611 229.887 40.809 219.389 L 158.218 223.325 C 157.58 227.274 157.228 231.502 156.736 235.79 L 156.776 235.79 C 157.653 230.126 159.023 224.621 160.884 219.336 L 40.769 219.336 C 36.835 214.658 33.029 209.874 29.354 204.99 L 168.596 204.99 L 168.915 204.438 C 185.548 175.566 216.714 157.63 250.239 157.63 C 283.765 157.63 314.931 175.566 331.57 204.438 L 331.889 204.99 L 470.639 204.99 C 466.969 209.878 463.162 214.662 459.224 219.336 L 459.224 219.336 Z " fill="rgb(255,255,255)"/><path d=" M 250.246 168.486 C 204.654 168.486 167.692 204.977 167.692 250.003 C 167.692 295.017 204.654 331.521 250.246 331.521 C 295.838 331.521 332.807 295.017 332.807 250.003 C 332.807 204.977 295.838 168.486 250.246 168.486 Z " fill="rgb(0,0,0)"/><path d=" M 250.246 326.528 C 207.44 326.528 172.737 292.264 172.737 249.997 C 172.737 207.729 207.44 173.465 250.246 173.465 C 293.052 173.465 327.748 207.729 327.748 249.997 C 327.748 292.264 293.052 326.528 250.246 326.528 Z " fill="rgb(255,255,255)"/><path d=" M 323.214 250.003 C 323.214 289.791 290.546 322.047 250.246 322.047 C 209.946 322.047 177.278 289.791 177.278 250.003 C 177.278 210.215 209.946 177.959 250.246 177.959 C 290.546 177.959 323.214 210.215 323.214 250.003 Z " fill="rgb(0,0,0)"/><path d=" M 303.017 230.325 L 312.777 230.325 L 312.777 270.911 L 303.017 270.911 L 303.017 230.325 Z  M 240.267 230.325 L 250.027 230.325 L 250.027 270.911 L 240.267 270.911 L 240.267 230.325 Z  M 285.719 230.325 L 285.719 254.943 L 267.87 230.325 L 258.669 230.325 L 258.669 270.911 L 267.87 270.911 L 267.87 246.294 L 285.719 270.911 L 294.927 270.911 L 294.927 230.325 L 285.719 230.325 Z  M 219.479 230.325 L 208.763 255.647 L 198.046 230.325 L 186.904 230.325 L 186.904 270.911 L 196.112 270.911 L 196.112 247.923 L 205.638 270.831 L 205.671 270.911 L 211.482 270.911 L 211.522 270.838 L 221.972 245.709 L 221.972 270.911 L 231.173 270.911 L 231.173 230.325 L 219.479 230.325 Z " fill="rgb(255,255,255)"/></g></svg>