<?xml version="1.0" encoding="UTF-8" standalone="no"?>
<!-- Generator: Gravit.io -->
<svg xmlns="http://www.w3.org/2000/svg" xmlns:xlink="http://www.w3.org/1999/xlink" style="isolation:isolate" viewBox="0 0 500 500" width="500pt" height="500pt"><g><linearGradient id="_lgradient_0" x1="0.5" y1="-1.1646927907161615" x2="0.4999999999999995" y2="1.6053771560289327" gradientTransform="matrix(450,0,0,113.229,25,194.895)" gradientUnits="userSpaceOnUse"><stop offset="19.400000000000002%" stop-opacity="1" style="stop-color:rgb(255,255,255)"/><stop offset="20.8%" stop-opacity="1" style="stop-color:rgb(248,248,248)"/><stop offset="36.6%" stop-opacity="1" style="stop-color:rgb(174,174,174)"/><stop offset="51.300000000000004%" stop-opacity="1" style="stop-color:rgb(112,112,112)"/><stop offset="64.7%" stop-opacity="1" style="stop-color:rgb(64,64,64)"/><stop offset="76.4%" stop-opacity="1" style="stop-color:rgb(29,29,29)"/><stop offset="86%" stop-opacity="1" style="stop-color:rgb(8,8,8)"/><stop offset="100%" stop-opacity="1" style="stop-color:rgb(0,0,0)"/></linearGradient><path d=" M 459.518 203.344 C 455.36 202.183 450.729 201.634 440.976 200.43 C 400.606 198.774 300.841 194.895 250.002 194.895 C 199.166 194.895 99.399 198.772 59.033 200.43 C 49.275 201.634 44.64 202.183 40.484 203.344 C 27.792 206.337 25 210.893 25 219.983 L 25 282.283 C 25 291.375 34.74 297.502 41.454 298.737 C 48.173 299.981 52.423 300.479 59.49 301.152 C 95.596 303.388 179.364 308.05 250 308.124 C 320.639 308.057 404.402 303.39 440.51 301.152 C 447.575 300.479 451.827 299.979 458.548 298.737 C 465.26 297.5 475 291.375 475 282.283 L 475 219.983 C 475 210.893 472.21 206.337 459.518 203.344 Z " fill="url(#_lgradient_0)"/><radialGradient id="_rgradient_0" fx="0.16861000756993366" fy="-0.521611999090981" cx="0.5" cy="0.5" r="1" gradientTransform="matrix(383.425,0,0,148.511,59.029,57.33)" gradientUnits="userSpaceOnUse"><stop offset="20.200000000000003%" stop-opacity="1" style="stop-color:rgb(255,255,255)"/><stop offset="38.2%" stop-opacity="1" style="stop-color:rgb(253,253,253)"/><stop offset="48.699999999999996%" stop-opacity="1" style="stop-color:rgb(244,244,244)"/><stop offset="57.3%" stop-opacity="1" style="stop-color:rgb(230,230,230)"/><stop offset="64.8%" stop-opacity="1" style="stop-color:rgb(210,210,210)"/><stop offset="68.89999999999999%" stop-opacity="1" style="stop-color:rgb(196,196,196)"/><stop offset="100%" stop-opacity="1" style="stop-color:rgb(51,51,51)"/></radialGradient><path d=" M 88.112 205.794 C 107.975 136.697 173.241 85.998 250.716 85.998 C 327.967 85.998 393.1 136.418 413.157 205.239 C 413.22 205.481 413.262 205.608 413.332 205.842 C 424.848 204.548 435.164 202.55 442.454 200.603 C 442.321 200.16 442.287 200.07 442.173 199.634 C 419.378 117.655 342.297 57.33 250.716 57.33 C 158.825 57.33 81.542 118.046 59.029 200.43 C 69.156 203.205 76.575 204.368 88.112 205.794 Z " fill="url(#_rgradient_0)"/><radialGradient id="_rgradient_1" fx="2.15328548738161" fy="1.2720827951036453" cx="0.5" cy="0.5" r="1" gradientTransform="matrix(382.477,0,0,146.313,59.49,296.357)" gradientUnits="userSpaceOnUse"><stop offset="20.200000000000003%" stop-opacity="1" style="stop-color:rgb(255,255,255)"/><stop offset="36.8%" stop-opacity="1" style="stop-color:rgb(228,228,228)"/><stop offset="59.4%" stop-opacity="1" style="stop-color:rgb(196,196,196)"/><stop offset="100%" stop-opacity="1" style="stop-color:rgb(51,51,51)"/></radialGradient><path d=" M 412.682 296.357 C 412.482 296.971 412.259 297.648 412.155 297.984 C 391.035 365.151 326.752 414.003 250.718 414.003 C 174.083 414.003 109.395 364.397 88.787 296.422 C 76.192 298.652 71.937 299.5 59.49 301.156 C 82.553 382.734 159.422 442.67 250.718 442.67 C 342.052 442.67 418.948 382.671 441.968 301.026 C 431.001 299.671 424.542 298.647 412.682 296.357 L 412.682 296.357 Z " fill="url(#_rgradient_1)"/><radialGradient id="_rgradient_2" fx="0.3410891328863891" fy="2.105358048340748" cx="0.5" cy="0.5" r="1" gradientTransform="matrix(325.208,0,0,119.806,88.124,86.031)" gradientUnits="userSpaceOnUse"><stop offset="20.200000000000003%" stop-opacity="1" style="stop-color:rgb(255,255,255)"/><stop offset="36.8%" stop-opacity="1" style="stop-color:rgb(228,228,228)"/><stop offset="59.4%" stop-opacity="1" style="stop-color:rgb(196,196,196)"/><stop offset="100%" stop-opacity="1" style="stop-color:rgb(51,51,51)"/></radialGradient><path d=" M 92.167 205.646 C 96.948 203.67 101.574 200.52 108.785 198.493 C 130.284 142.637 185.711 102.861 250.713 102.861 C 315.513 102.861 370.803 142.391 392.436 197.978 C 392.513 198.167 392.591 198.396 392.652 198.538 C 396.374 199.827 407.338 204.273 410.749 205.76 C 411.233 205.772 412.265 205.808 413.332 205.837 C 413.27 205.637 413.211 205.436 413.157 205.234 C 393.091 136.436 327.96 86.031 250.713 86.031 C 173.259 86.031 107.994 136.708 88.124 205.792 C 89.271 205.794 91.456 205.695 92.167 205.646 L 92.167 205.646 Z " fill="url(#_rgradient_2)"/><path d=" M 249.48 90.704 C 321.959 90.704 386.208 133.922 410.544 205.16 L 410.742 205.765 C 411.12 205.765 412.5 205.814 413.325 205.842 C 413.26 205.583 413.192 205.432 413.15 205.239 C 393.084 136.44 327.953 86.036 250.707 86.036 C 173.252 86.036 107.987 136.713 88.117 205.797 C 89.665 205.772 90.41 205.772 92.165 205.648 C 113.922 138.017 177.534 90.704 249.48 90.704 L 249.48 90.704 Z " fill="rgb(255,255,255)"/><radialGradient id="_rgradient_3" fx="0.8402703491199072" fy="2.100005737563829" cx="0.5" cy="0.5" r="1" gradientTransform="matrix(323.915,0,0,117.646,88.776,296.359)" gradientUnits="userSpaceOnUse"><stop offset="20.200000000000003%" stop-opacity="1" style="stop-color:rgb(255,255,255)"/><stop offset="36.8%" stop-opacity="1" style="stop-color:rgb(228,228,228)"/><stop offset="59.4%" stop-opacity="1" style="stop-color:rgb(196,196,196)"/><stop offset="100%" stop-opacity="1" style="stop-color:rgb(51,51,51)"/></radialGradient><path d=" M 408.573 296.553 C 403.367 299.462 396.884 302.261 391.703 303.897 C 391.633 304.063 391.338 304.801 391.275 304.974 C 368.861 359.024 314.373 397.177 250.716 397.177 C 186.658 397.177 131.891 358.56 109.737 303.975 C 103.777 302.321 94.867 298.258 91.494 296.561 C 90.232 296.501 89.552 296.465 88.776 296.424 C 109.384 364.39 174.083 414.005 250.718 414.005 C 327.006 414.005 391.455 364.844 412.365 297.358 C 412.41 297.227 412.641 296.485 412.691 296.359 C 411.483 296.406 409.635 296.553 408.573 296.553 L 408.573 296.553 Z " fill="url(#_rgradient_3)"/><radialGradient id="_rgradient_4" fx="0.4933000000000003" fy="-1.056609762180055" cx="0.5" cy="0.5" r="1" gradientTransform="matrix(450,0,0,99.245,25,201.891)" gradientUnits="userSpaceOnUse"><stop offset="20.200000000000003%" stop-opacity="1" style="stop-color:rgb(255,255,255)"/><stop offset="39.7%" stop-opacity="1" style="stop-color:rgb(253,253,253)"/><stop offset="51%" stop-opacity="1" style="stop-color:rgb(244,244,244)"/><stop offset="60.3%" stop-opacity="1" style="stop-color:rgb(230,230,230)"/><stop offset="68.4%" stop-opacity="1" style="stop-color:rgb(210,210,210)"/><stop offset="72.8%" stop-opacity="1" style="stop-color:rgb(196,196,196)"/><stop offset="100%" stop-opacity="1" style="stop-color:rgb(77,77,77)"/></radialGradient><path d=" M 455.911 207.855 C 445.219 206.555 437.929 206.694 411.883 205.797 C 410.699 205.754 409.496 205.718 408.274 205.675 C 361.047 204.055 290.104 201.891 250 201.891 C 209.898 201.891 138.958 204.055 91.724 205.675 C 90.504 205.718 89.305 205.754 88.124 205.797 C 62.073 206.694 54.786 206.555 44.091 207.855 C 33.399 209.167 25 213.849 25 221.812 L 25 279.585 C 25 287.553 35.118 294.003 44.089 294.003 C 44.089 294.003 158.268 301.053 250 301.136 C 341.735 301.053 455.911 294.003 455.911 294.003 C 464.882 294.003 475 287.553 475 279.585 L 475 221.812 C 475 213.849 466.603 209.167 455.911 207.855 L 455.911 207.855 Z " fill="url(#_rgradient_4)"/><path d=" M 408.573 296.553 C 386.166 363.024 323.147 409.329 251.964 409.329 C 180.057 409.329 116.251 366.791 91.487 296.553 C 90.578 296.505 89.678 296.469 88.79 296.417 C 109.393 364.386 174.103 414 250.74 414 C 327.402 414 392.119 364.354 412.704 296.35 C 411.35 296.413 409.975 296.487 408.573 296.553 L 408.573 296.553 Z " fill="rgb(255,255,255)"/><path d=" M 408.704 296.548 L 408.566 296.553 C 403.36 299.462 396.882 302.261 391.696 303.897 C 391.626 304.063 391.331 304.801 391.271 304.974 C 384.179 322.079 373.874 337.59 361.071 350.809 C 381.11 336.159 397.454 317.651 408.704 296.548 L 408.704 296.548 Z " fill="rgb(140,140,140)"/><path d=" M 144.677 355.109 C 129.607 340.754 117.61 323.377 109.735 303.971 C 103.775 302.315 94.867 298.249 91.492 296.553 C 95.099 304.029 99.351 311.177 104.2 317.914 C 114.12 330.834 126.144 342.349 139.831 352.094 C 141.424 353.138 143.04 354.141 144.677 355.109 L 144.677 355.109 Z " fill="rgb(77,77,77)"/><path d=" M 88.783 296.427 L 88.783 296.422 L 88.731 296.431 C 76.176 298.656 71.917 299.509 59.488 301.156 C 60.489 304.711 61.599 308.214 62.807 311.682 L 88.783 296.427 Z " fill="rgb(37,37,37)"/><radialGradient id="_rgradient_5" fx="0.5088979891050198" fy="-1.933238383478731" cx="0.5" cy="0.5" r="1" gradientTransform="matrix(356.036,0,0,50.553,72.806,225.052)" gradientUnits="userSpaceOnUse"><stop offset="11.1%" stop-opacity="1" style="stop-color:rgb(77,77,77)"/><stop offset="24.8%" stop-opacity="1" style="stop-color:rgb(73,73,73)"/><stop offset="35.5%" stop-opacity="1" style="stop-color:rgb(64,64,64)"/><stop offset="45.1%" stop-opacity="1" style="stop-color:rgb(47,47,47)"/><stop offset="54.1%" stop-opacity="1" style="stop-color:rgb(24,24,24)"/><stop offset="100%" stop-opacity="1" style="stop-color:rgb(0,0,0)"/></radialGradient><path d=" M 341.433 233.442 C 337.68 225.054 339.012 225.934 330.842 225.718 C 330.179 225.493 328.408 225.493 325.983 225.493 C 323.562 225.493 323.116 225.493 321.127 225.718 C 313.405 225.718 314.728 225.277 312.082 230.794 C 312.082 230.794 298.827 260.589 293.094 272.948 L 292.874 273.389 C 291.771 275.592 292.435 275.592 294.197 275.592 L 306.12 275.592 C 307.006 275.592 307.442 275.159 307.663 274.71 C 307.663 274.71 309.429 270.957 311.636 265.662 L 340.772 265.662 C 342.981 270.741 344.525 274.489 344.525 274.71 C 344.745 275.373 345.409 275.592 346.068 275.592 L 358.43 275.592 C 360.196 275.592 360.639 275.823 359.978 274.269 C 357.766 268.974 343.42 238.07 341.433 233.442 L 341.433 233.442 Z  M 316.047 255.069 C 319.8 246.243 323.557 237.636 323.557 237.413 C 323.78 236.97 324.221 236.75 324.88 236.75 C 325.103 236.525 325.769 236.525 326.428 236.525 C 326.871 236.525 327.528 236.525 327.751 236.75 C 328.19 236.75 328.64 236.97 328.851 237.634 C 329.742 240.057 333.045 247.565 336.134 255.069 L 316.047 255.069 L 316.047 255.069 Z  M 157.125 225.052 C 158.227 225.052 158.45 225.491 158.45 226.375 L 158.45 273.614 C 158.45 274.712 158.227 275.162 156.906 275.162 L 145.427 275.162 C 144.106 275.162 143.886 274.937 143.886 273.614 L 143.886 226.375 C 143.886 225.491 144.106 225.052 144.986 225.052 L 157.125 225.052 L 157.125 225.052 Z  M 132.624 225.491 C 133.945 225.491 134.172 225.93 134.172 227.039 L 134.172 274.055 C 134.172 275.382 133.945 275.603 132.624 275.603 L 119.158 275.603 C 111.216 275.603 110.552 275.603 107.906 271.193 C 102.387 262.587 85.829 237.202 85.829 237.202 L 85.829 274.059 C 85.829 275.389 85.608 275.605 84.288 275.605 L 74.352 275.605 C 73.029 275.605 72.806 275.389 72.806 274.059 L 72.806 227.039 C 72.806 225.934 73.029 225.491 74.352 225.491 L 85.829 225.491 C 94.437 225.491 95.54 225.273 98.636 229.687 C 101.061 233.663 121.147 264.562 121.147 264.562 L 121.147 227.039 C 121.147 225.934 121.368 225.491 122.695 225.491 L 132.624 225.491 L 132.624 225.491 Z  M 427.293 225.491 C 428.625 225.491 428.841 225.93 428.841 227.039 L 428.841 274.055 C 428.841 275.382 428.621 275.603 427.293 275.603 L 413.84 275.603 C 405.887 275.603 405.223 275.603 402.577 271.193 C 397.053 262.58 380.5 237.197 380.5 237.197 L 380.5 274.057 C 380.5 275.384 380.279 275.6 378.952 275.6 L 369.025 275.6 C 367.702 275.6 367.475 275.384 367.475 274.057 L 367.475 227.039 C 367.475 225.934 367.704 225.491 369.025 225.491 L 380.5 225.491 C 389.109 225.491 390.215 225.273 393.3 229.687 C 395.951 233.663 415.818 264.562 415.818 264.562 L 415.818 227.039 C 415.818 225.934 416.041 225.491 417.366 225.491 L 427.293 225.491 L 427.293 225.491 Z  M 207.673 244.701 C 216.504 245.581 222.908 247.124 224.672 255.515 C 224.672 256.172 224.895 258.381 224.895 260.811 C 224.895 262.359 224.895 264.339 224.451 266.108 C 222.91 274.053 216.945 275.596 207.68 275.596 L 170.591 275.596 C 169.265 275.596 169.043 275.38 169.043 274.053 L 169.043 266.108 C 169.043 264.78 169.265 264.56 170.591 264.56 L 208.11 264.56 C 209.657 264.56 210.098 264.121 210.317 263.012 L 210.317 261.025 L 210.317 259.702 C 210.094 258.815 209.876 257.493 207.891 257.277 C 203.695 257.056 191.338 255.949 182.945 255.069 C 172.13 253.965 169.484 249.334 169.04 245.358 C 168.82 244.031 168.82 242.267 168.82 240.721 C 168.82 239.396 168.82 237.411 169.04 235.863 C 170.589 228.796 175.887 225.491 185.153 225.491 L 221.13 225.491 C 222.46 225.491 222.903 225.716 222.903 226.816 L 222.903 234.986 C 222.903 236.082 222.46 236.527 221.13 236.307 L 185.816 236.307 C 184.271 236.307 183.612 236.968 183.386 238.511 L 183.386 240.498 C 183.386 241.603 184.05 242.487 185.594 242.701 C 189.797 243.151 202.815 244.253 207.673 244.701 L 207.673 244.701 Z  M 271.458 244.701 C 280.296 245.581 286.693 247.124 288.462 255.515 C 288.462 256.172 288.682 258.381 288.682 260.811 C 288.682 262.359 288.682 264.339 288.241 266.108 C 286.7 274.053 280.742 275.596 271.467 275.596 L 234.38 275.596 C 233.055 275.596 232.833 275.38 232.833 274.053 L 232.833 266.108 C 232.833 264.78 233.055 264.56 234.38 264.56 L 271.906 264.56 C 273.449 264.56 273.884 264.121 274.111 263.012 L 274.111 261.025 L 274.111 259.702 C 273.881 258.815 273.445 257.493 271.681 257.277 C 267.489 257.056 255.128 255.949 246.742 255.069 C 235.922 253.965 233.499 249.334 232.833 245.358 C 232.612 244.031 232.612 242.267 232.612 240.721 C 232.612 239.396 232.612 237.411 232.833 235.863 C 234.38 228.796 239.677 225.491 248.945 225.491 L 284.929 225.491 C 286.248 225.491 286.695 225.716 286.695 226.816 L 286.695 234.986 C 286.695 236.082 286.248 236.527 284.929 236.307 L 249.608 236.307 C 248.065 236.307 247.406 236.968 247.181 238.511 L 247.181 240.498 C 247.181 241.603 247.624 242.487 249.393 242.701 C 253.587 243.151 266.605 244.253 271.458 244.701 L 271.458 244.701 Z " fill="url(#_rgradient_5)"/></g></svg>