<?xml version="1.0" encoding="UTF-8" standalone="no"?>
<!-- Generator: Gravit.io -->
<svg xmlns="http://www.w3.org/2000/svg" xmlns:xlink="http://www.w3.org/1999/xlink" style="isolation:isolate" viewBox="0 0 500 500" width="500pt" height="500pt"><g><path d=" M 25 206.293 L 475 206.293 L 475 293.707 L 25 293.707 L 25 206.293 Z " fill="none"/><path d=" M 51.184 219.823 C 39.812 227.326 27.906 232.4 25.692 233.318 L 81.84 272.644 C 81.898 272.684 81.932 272.75 81.93 272.821 L 81.93 272.823 C 81.93 272.895 81.894 272.962 81.834 273.001 L 79.327 274.651 C 79.254 274.698 79.159 274.697 79.087 274.648 L 58.583 260.534 C 50.759 255.249 42.128 256.37 36.268 258.244 C 30.643 260.039 26.498 262.789 25.472 263.507 C 25.963 263.851 67.887 293.15 68.169 293.349 C 69.074 292.499 75.216 286.89 88.125 278.926 C 101.737 270.541 109.763 267.609 111.62 266.989 L 55.368 227.598 C 55.31 227.558 55.276 227.492 55.276 227.422 L 55.276 227.419 C 55.277 227.348 55.313 227.281 55.372 227.242 L 57.766 225.654 C 57.837 225.607 57.93 225.607 58.002 225.654 C 58.077 225.703 65.619 230.654 79.177 240.199 C 91.888 249.142 109.617 238.418 112.055 236.861 C 111.539 236.505 68.951 206.834 68.682 206.645 C 67.616 207.554 59.76 214.182 51.184 219.823 Z " fill="rgb(213,43,30)"/><path d=" M 261.591 226.402 L 261.591 238.932 L 289.548 238.932 C 289.666 238.934 289.761 239.029 289.763 239.147 C 289.763 239.205 289.739 239.261 289.694 239.304 L 260.607 266.462 L 260.607 277.022 L 319.371 277.022 L 319.371 264.438 L 290.115 264.438 C 290.027 264.438 289.947 264.384 289.915 264.302 C 289.883 264.219 289.905 264.126 289.97 264.065 C 289.97 264.065 319.336 237.107 319.474 236.978 L 319.474 226.399 C 319.051 226.402 262.015 226.402 261.591 226.402 Z  M 238.045 226.402 L 238.045 258.559 C 238.045 263.258 233.921 266.063 227.012 266.063 C 220.003 266.063 215.982 263.282 215.982 258.433 L 215.982 226.403 L 197.939 226.403 L 197.939 259.461 C 197.939 266.491 199.731 270.899 203.749 273.749 C 208.147 276.871 215.538 278.325 227.011 278.325 C 238.484 278.325 245.877 276.871 250.274 273.749 C 254.294 270.899 256.086 266.49 256.086 259.461 L 256.086 226.403 L 238.045 226.402 L 238.045 226.402 Z  M 364.838 226.402 L 364.838 258.429 C 364.838 263.209 360.718 266.061 353.812 266.061 C 346.795 266.061 342.773 263.281 342.773 258.431 L 342.773 226.402 L 324.735 226.402 L 324.735 259.46 C 324.735 266.49 326.528 270.898 330.548 273.747 C 334.947 276.87 342.338 278.324 353.812 278.324 C 365.279 278.324 372.671 276.87 377.074 273.747 C 381.092 270.897 382.887 266.489 382.887 259.46 L 382.887 226.402 L 364.838 226.402 L 364.838 226.402 Z  M 455.84 226.402 L 455.84 277.024 L 474.687 277.024 L 474.687 226.402 L 455.84 226.402 Z  M 427.795 226.402 C 427.672 226.504 407.363 243.972 407.363 243.972 C 407.299 244.027 407.209 244.039 407.133 244.003 C 407.056 243.97 407.006 243.893 407.007 243.808 L 407.007 226.402 L 388.164 226.402 L 388.164 277.024 L 407.007 277.024 L 407.007 259.136 C 407.007 259.052 407.057 258.971 407.138 258.939 C 407.217 258.906 407.308 258.922 407.37 258.98 C 407.37 258.98 426.22 276.906 426.343 277.024 L 451.593 277.024 L 423.83 251.208 C 423.786 251.168 423.761 251.111 423.761 251.052 L 423.761 251.046 C 423.761 250.986 423.788 250.928 423.838 250.887 L 452.489 226.401 L 427.795 226.402 L 427.795 226.402 Z  M 132.881 241.65 C 132.881 247.154 135.01 250.888 139.579 253.397 C 143.783 255.706 150.1 257.144 160.702 258.208 L 162.705 258.38 C 167.301 258.747 172.509 259.16 172.509 262.926 C 172.509 265.505 169.71 266.929 164.629 266.929 C 162.146 266.929 158.503 266.301 155.451 260.954 L 131.803 260.954 C 131.856 266.817 134.028 270.84 138.644 273.588 C 143.852 276.69 152.338 278.196 164.59 278.196 C 191.915 278.196 194.038 265.469 194.038 261.569 C 194.038 252.524 185.978 247.093 169.395 244.97 L 166.79 244.64 C 159.223 243.7 153.245 242.957 153.245 240.301 C 153.245 239.274 153.585 238.414 154.254 237.747 C 156.002 236 159.607 236.005 161.146 236.006 L 161.29 236.006 C 162.707 236.006 167.557 236.43 170.871 241.772 L 192.303 241.772 C 192.151 231.081 180.9 224.951 161.362 224.951 C 135.657 224.95 132.881 236.627 132.881 241.65 L 132.881 241.65 Z " fill="rgb(0,52,120)"/></g></svg>