<?xml version="1.0" encoding="UTF-8" standalone="no"?>
<!-- Generator: Gravit.io -->
<svg xmlns="http://www.w3.org/2000/svg" xmlns:xlink="http://www.w3.org/1999/xlink" style="isolation:isolate" viewBox="0 0 500 500" width="500pt" height="500pt"><g><path d=" M 80.784 282.757 C 74.915 279.08 70.589 266.392 70.589 251.313 C 70.589 250.76 70.592 250.214 70.606 249.67 L 70.61 249.677 C 54.282 247.111 42.486 240.082 42.182 231.766 L 42.136 231.864 C 38.141 236.83 35.86 242.57 35.86 248.687 C 35.86 266.686 55.618 281.434 80.679 282.739 L 80.784 282.757 L 80.784 282.757 Z  M 28.31 249.999 C 28.31 229.861 53.374 213.531 84.291 213.531 C 115.21 213.531 140.273 229.861 140.273 249.999 C 140.273 270.139 115.21 286.469 84.291 286.469 C 53.374 286.469 28.31 270.139 28.31 249.999 Z  M 84.293 218.793 C 90.263 218.793 95.34 227.849 97.222 240.483 L 97.227 240.462 C 108.841 238.655 116.97 234.486 116.97 229.632 C 116.97 223.121 102.339 217.847 84.293 217.847 C 66.249 217.847 51.619 223.121 51.619 229.632 C 51.619 234.486 59.748 238.653 71.36 240.462 L 71.367 240.483 C 73.248 227.849 78.326 218.793 84.293 218.793 Z  M 87.907 282.736 C 112.968 281.431 132.728 266.684 132.728 248.684 C 132.728 242.568 130.445 236.827 126.453 231.862 L 126.404 231.764 C 126.103 240.079 114.306 247.109 97.976 249.674 L 97.983 249.667 C 97.995 250.211 97.999 250.758 97.999 251.311 C 97.999 266.39 93.671 279.078 87.804 282.755 L 87.907 282.736 L 87.907 282.736 Z  M 84.293 241.419 C 86.884 241.422 89.474 241.312 92.055 241.088 L 92.053 241.09 C 90.816 232.994 87.809 227.277 84.295 227.277 C 80.782 227.277 77.777 232.994 76.538 241.09 L 76.535 241.088 C 79.115 241.311 81.704 241.421 84.293 241.419 L 84.293 241.419 Z  M 84.293 271.409 C 88.787 271.409 92.455 262.057 92.648 250.33 L 92.672 250.337 C 87.099 250.851 81.49 250.851 75.917 250.337 L 75.94 250.33 C 76.134 262.057 79.799 271.409 84.293 271.409 Z  M 313.972 249.999 C 313.972 234.607 326.452 222.127 341.844 222.127 C 357.243 222.127 369.721 234.607 369.721 249.999 C 369.721 265.395 357.24 277.871 341.844 277.871 C 326.452 277.871 313.972 265.395 313.972 249.999 L 313.972 249.999 Z  M 341.844 267.65 C 350.44 267.65 357.411 259.746 357.411 249.996 C 357.411 240.25 350.44 232.345 341.844 232.345 C 333.248 232.345 326.282 240.25 326.282 249.996 C 326.282 259.748 333.25 267.65 341.844 267.65 L 341.844 267.65 Z  M 401.349 233.739 L 401.349 276.606 L 389.602 276.606 L 389.602 233.739 L 389.644 233.739 L 373.22 233.739 L 373.22 224.048 L 417.731 224.048 L 417.731 233.739 L 401.349 233.739 Z  M 431.939 264.781 L 431.93 264.793 L 427.424 276.608 L 413.704 276.608 L 435.39 224.048 L 450.009 224.048 L 471.69 276.608 L 457.974 276.608 L 453.468 264.793 L 453.454 264.781 L 431.939 264.781 L 431.939 264.781 Z  M 442.699 255.91 L 450.09 255.91 L 450.086 255.912 L 442.748 236.676 L 442.648 236.676 L 435.31 255.912 L 435.306 255.91 L 442.699 255.91 L 442.699 255.91 Z  M 184.859 233.739 L 184.859 276.606 L 173.114 276.606 L 173.114 233.739 L 173.156 233.739 L 156.73 233.739 L 156.73 224.048 L 201.243 224.048 L 201.243 233.739 L 184.859 233.739 Z  M 204.247 249.999 C 204.247 234.607 216.728 222.127 232.124 222.127 C 247.518 222.127 259.999 234.607 259.999 249.999 C 259.999 265.395 247.518 277.871 232.124 277.871 C 216.728 277.871 204.247 265.395 204.247 249.999 L 204.247 249.999 Z  M 232.124 267.65 C 240.718 267.65 247.689 259.746 247.689 249.996 C 247.689 240.25 240.718 232.345 232.124 232.345 C 223.528 232.345 216.56 240.25 216.56 249.996 C 216.56 259.748 223.528 267.65 232.124 267.65 L 232.124 267.65 Z  M 286.982 276.606 L 292.937 276.606 L 292.937 256.65 L 313.428 224.048 L 299.712 224.048 L 286.982 246.14 L 274.256 224.048 L 260.541 224.048 L 281.029 256.65 L 281.029 276.606 L 286.982 276.606 Z " fill-rule="evenodd" fill="rgb(204,34,41)"/></g></svg>