<?xml version="1.0" encoding="UTF-8" standalone="no"?>
<!-- Generator: Gravit.io -->
<svg xmlns="http://www.w3.org/2000/svg" xmlns:xlink="http://www.w3.org/1999/xlink" style="isolation:isolate" viewBox="0 0 500 500" width="500pt" height="500pt"><g><path d=" M 250.077 62.955 C 353.066 62.955 437.045 146.939 437.045 250.077 C 437.045 352.91 353.064 437.047 250.077 437.047 C 147.09 437.047 62.955 352.91 62.955 250.077 C 62.953 146.936 147.09 62.955 250.077 62.955 L 250.077 62.955 Z " fill-rule="evenodd" fill="rgb(41,92,167)"/><path d=" M 250.077 86.709 C 339.883 86.709 413.295 160.117 413.295 250.079 C 413.295 339.887 339.885 413.141 250.077 413.141 C 160.269 413.141 86.863 339.885 86.863 250.077 C 86.863 160.117 160.269 86.709 250.077 86.709 Z  M 140.806 162.263 L 199.349 314.137 L 220.804 258.659 L 277.048 258.659 L 298.5 314.137 L 357.658 160.423 C 347.219 147.829 334.669 137.147 320.569 128.855 L 279.499 241.955 L 221.567 241.955 L 180.346 128.393 C 165.174 137.129 151.841 148.624 140.806 162.263 Z  M 381.263 200.423 L 314.595 374.367 C 359.348 350.918 390.148 304.024 390.148 250.079 C 390.148 232.608 387.085 215.901 381.263 200.423 L 381.263 200.423 Z  M 285.476 385.706 L 285.021 382.18 L 248.849 288.389 L 212.682 382.18 L 212.53 385.094 C 224.483 388.463 237.05 390.151 250.077 390.151 C 262.336 390.151 274.137 388.619 285.476 385.706 Z  M 182.797 372.833 L 117.82 203.489 C 112.609 218.047 109.849 233.679 109.849 250.077 C 109.849 302.796 139.274 349.076 182.797 372.833 L 182.797 372.833 Z  M 250.077 109.849 C 262.336 109.849 274.443 111.383 285.938 114.446 L 250.537 212.376 L 214.982 114.294 C 226.444 111.329 238.237 109.835 250.077 109.849 L 250.077 109.849 Z " fill-rule="evenodd" fill="rgb(255,255,255)"/></g></svg>