<?xml version="1.0" encoding="UTF-8" standalone="no"?>
<!-- Generator: Gravit.io -->
<svg xmlns="http://www.w3.org/2000/svg" xmlns:xlink="http://www.w3.org/1999/xlink" style="isolation:isolate" viewBox="0 0 500 500" width="500pt" height="500pt"><g><path d=" M 31.616 222.532 L 31.616 230.506 L 44.697 230.506 L 70.295 278.514 L 101.795 278.514 L 127.394 230.427 L 140.472 230.345 L 140.5 222.532 L 101.368 222.532 L 101.368 230.373 L 111.79 230.373 L 93.713 264.502 L 74.161 230.492 L 88.423 230.427 L 88.397 222.532 L 31.616 222.532 Z  M 284.068 222.532 L 284.068 230.506 L 297.144 230.506 L 322.747 278.514 L 354.245 278.514 L 379.843 230.427 L 392.926 230.345 L 392.947 222.532 L 353.822 222.532 L 353.822 230.373 L 364.239 230.373 L 346.165 264.502 L 326.613 230.492 L 340.873 230.427 L 340.849 222.532 L 284.068 222.532 L 284.068 222.532 Z  M 219.707 222.532 L 219.707 230.506 L 232.787 230.506 L 232.806 269.701 L 219.02 269.701 L 219.02 278.442 L 232.815 278.514 L 298.122 278.514 L 298.122 252.456 L 289.613 252.456 C 289.148 266.253 277.179 269.72 272.141 269.72 C 267.519 269.72 258.568 269.701 258.568 269.701 L 258.568 230.492 L 271.45 230.427 L 271.431 222.532 L 219.707 222.532 Z  M 175.675 220.925 C 153.443 220.925 135.422 234.162 135.422 250.486 C 135.422 266.809 153.443 280.046 175.675 280.046 C 197.907 280.046 215.929 266.809 215.929 250.486 C 215.929 234.162 197.907 220.925 175.675 220.925 Z  M 175.098 271.345 C 167.261 271.345 160.911 261.958 160.911 250.371 C 160.911 238.782 167.261 229.388 175.098 229.388 C 182.933 229.388 189.287 238.782 189.287 250.371 C 189.287 261.958 182.933 271.345 175.098 271.345 Z  M 428.131 219.954 C 405.899 219.954 387.879 233.404 387.879 249.998 C 387.879 266.585 405.899 280.036 428.131 280.036 C 450.359 280.036 468.384 266.585 468.384 249.998 C 468.384 233.406 450.359 219.954 428.131 219.954 Z  M 427.552 271.195 C 419.72 271.195 413.368 261.652 413.368 249.876 C 413.368 238.101 419.72 228.555 427.552 228.555 C 435.39 228.555 441.737 238.098 441.737 249.876 C 441.737 261.652 435.39 271.195 427.552 271.195 Z " fill-rule="evenodd" fill="rgb(39,97,171)"/></g></svg>